<svg width="266" height="159" viewBox="0 0 266 159" fill="none" xmlns="http://www.w3.org/2000/svg">
<mask id="mask0_542_1142" style="mask-type:alpha" maskUnits="userSpaceOnUse" x="0" y="0" width="266" height="159">
<rect width="266" height="159" fill="#D9D9D9"/>
</mask>
<g mask="url(#mask0_542_1142)">
<path d="M66.5589 82.2497C28.7575 89.9816 6.43573 136.638 0 159H265.728C267.76 146.303 259.326 104.877 209.33 40.7477C159.335 -23.3815 127.868 2.27779 118.383 23.1235C116.859 39.6106 104.36 74.5178 66.5589 82.2497Z" fill="#052742"/>
<path d="M79.7148 32.3405L77.7789 26.8728C77.7789 26.8728 73.8445 24.8387 74.3518 19.1056C74.8578 13.3712 85.3508 12.3757 85.5556 15.5237C85.5556 15.5237 90.8961 20.8122 85.2341 24.6438L85.1663 30.8966L79.7148 32.3405Z" fill="#F8A692"/>
<path d="M137.443 63.226L135.189 85.0918L148.986 80.5473L151.434 58.0434L137.443 63.226Z" fill="#986B59"/>
<path d="M147.491 24.5738C157.19 27.3413 156.567 34.083 156.567 34.083C156.567 34.083 155.984 39.2809 155.46 45.4842C156.434 44.2807 157.999 43.8395 159.54 44.5989C162.806 46.2102 159.775 56.6236 154.743 55.4394C154.367 58.3728 153.957 60.65 153.538 61.4249C151.952 64.3487 145.433 68.5838 139.833 69.0001C134.234 69.4177 125.255 63.5031 125.605 56.9328C125.955 50.3611 129.14 30.7558 129.14 30.7558C129.14 30.7558 131.43 19.9913 147.491 24.5738Z" fill="#F8A692"/>
<path d="M141.047 37.2208C141.047 37.2208 141.441 36.752 142.226 36.3494C142.616 36.147 143.099 35.9546 143.65 35.8497C143.925 35.7973 144.216 35.7428 144.518 35.7466C144.816 35.7225 145.131 35.7764 145.442 35.7918C146.056 35.9272 146.685 36.1207 147.167 36.502C147.423 36.6658 147.633 36.8666 147.8 37.087C147.988 37.2863 148.133 37.4944 148.222 37.7132C148.453 38.1163 148.526 38.4924 148.558 38.7542C148.595 39.0131 148.599 39.1573 148.599 39.1573C148.599 39.1573 148.473 39.0606 148.285 38.8975C148.105 38.7272 147.854 38.5003 147.539 38.2819C147.237 38.0549 146.879 37.8372 146.481 37.6817C146.298 37.5718 146.068 37.5511 145.865 37.4663C145.658 37.3896 145.419 37.372 145.198 37.3214C144.962 37.2997 144.736 37.2347 144.495 37.2413C144.258 37.233 144.02 37.1966 143.784 37.2056C143.312 37.1902 142.857 37.206 142.452 37.206C141.649 37.2311 141.047 37.2208 141.047 37.2208Z" fill="#432624"/>
<path d="M135.221 36.6143C135.221 36.6143 134.708 36.4953 134.064 36.3147C133.411 36.1478 132.606 35.9363 131.914 35.9491C131.565 35.9397 131.237 35.996 130.918 36.0947C130.752 36.1256 130.607 36.221 130.447 36.2744C130.285 36.3292 130.151 36.4321 130.007 36.5048C129.715 36.6489 129.488 36.83 129.302 36.9395C129.117 37.053 128.996 37.1165 128.996 37.1165C128.996 37.1165 129.003 36.9904 129.046 36.7703C129.095 36.5539 129.147 36.2225 129.363 35.8923C129.464 35.7228 129.555 35.5177 129.734 35.3644C129.905 35.2035 130.06 34.9886 130.307 34.8748C130.538 34.7403 130.777 34.5801 131.063 34.5298C131.339 34.4373 131.625 34.4191 131.914 34.4008C132.482 34.4248 133.03 34.5461 133.464 34.7853C133.911 34.9972 134.259 35.2875 134.523 35.5578C135.056 36.1037 135.221 36.6143 135.221 36.6143Z" fill="#432624"/>
<path d="M144.858 57.2632L132.377 57.254C132.377 57.254 135.083 63.189 144.858 57.2632Z" fill="white"/>
<path d="M105.007 151.538C105.007 151.538 133.763 162.426 160.154 154.43L161.667 90.1693L161.229 97.8631C161.229 97.8631 165.093 75.8601 150.403 74.2395C149.379 74.1258 148.424 73.9631 147.545 73.9545L138.518 73.8612L137.746 73.854L125.39 73.4683L113.616 89.6241L105.007 151.538Z" fill="#CCCDCE"/>
<path d="M132.377 117.964C138.112 115.957 143.856 113.321 148.694 109.503C152.622 106.402 156.419 101.507 161.191 99.8827L160.621 159.147C128.035 159.101 102.855 159.065 102.855 159.065L110.307 118.487C117.695 120.169 125.663 120.312 132.377 117.964Z" fill="#D3D3D3"/>
<path d="M150.892 76.8321L151.502 67.5373L134.472 68.137L134.656 75.3736L150.892 76.8321Z" fill="#CCCDCE"/>
<path d="M138.518 73.8612C138.518 73.8612 128.534 74.0747 119.469 72.3428C112.858 71.0803 92.4803 59.1945 92.4803 59.1945L86.4155 29.1419L77.106 31.3704C77.106 31.3704 78.5054 65.6492 82.4279 70.0385C85.5253 73.5059 118.068 91.0349 118.068 91.0349L138.518 73.8612Z" fill="#CCCDCE"/>
<path d="M194.019 29.7849L195.407 24.1526C195.407 24.1526 199.122 21.7398 198.052 16.0848C196.984 10.4297 186.444 10.4742 186.551 13.6271C186.551 13.6271 181.757 19.4173 187.768 22.6709L188.452 28.8879L194.019 29.7849Z" fill="#F8A692"/>
<path d="M139.591 76.9128C139.591 76.9128 147.829 75.4474 156.679 72.8285C163.134 70.9191 183.96 57.7701 183.96 57.7701L187.036 27.2636L196.52 28.563C196.52 28.563 198.503 62.8116 195.032 67.5669C192.291 71.3247 161.633 91.9828 161.633 91.9828L139.591 76.9128Z" fill="#CCCDCE"/>
<path d="M156.343 44.3092C153.254 51.209 155.875 62.6115 150.71 66.71C145.437 70.894 136.376 72.2638 131.217 70.4655C125.479 68.4645 122.11 64.3112 123.064 58.4985C124.187 51.66 127.084 43.8845 127.084 43.8845C127.084 43.8845 125.929 51.1031 133.148 50.7002C139.444 50.3484 151.061 60.0941 152.886 44.3212C154.843 27.412 141.435 28.8888 136.287 29.2506C131.138 29.6112 127.93 27.0009 129.214 22.7122L130.948 24.4367C130.948 24.4367 128.878 19.457 132.238 16.8572C132.238 16.8572 132.522 19.5988 134.492 20.2594C134.492 20.2594 133.984 17.0221 136.786 15.6933C136.786 15.6933 136.025 18.3691 137.771 18.534C139.516 18.699 152.409 16.3225 154.509 24.9335C154.509 24.9335 157.742 24.4245 158.751 29.1693C159.761 33.9114 159.432 37.408 156.343 44.3092Z" fill="#704644"/>
<path d="M136.499 38.2036C135.995 40.2836 135.335 42.3019 134.595 44.288C133.849 46.2704 133.038 48.2279 132.134 50.1486L131.881 49.6356C133.084 50.044 134.273 50.5026 135.447 51.0208C134.174 50.8618 132.918 50.6446 131.676 50.3772L131.279 50.2912L131.422 49.8629C132.092 47.8496 132.854 45.8717 133.681 43.9214C134.514 41.9722 135.427 40.0564 136.499 38.2036Z" fill="#B56760"/>
<path d="M143.448 55.8955L130.37 53.9317C130.37 53.9317 130.445 59.2976 137.594 59.3756C139.749 59.3985 142.737 58.9484 143.448 55.8955Z" fill="#E66B7A"/>
<path d="M134.086 58.7645C135.369 57.5137 137.112 56.6452 139.377 56.533C140.743 56.4654 141.932 56.686 142.954 57.1114C143.161 56.7562 143.338 56.3663 143.448 55.8956L130.37 53.9318C130.37 53.9318 130.429 57.3464 134.086 58.7645Z" fill="#722C35"/>
<path d="M141.574 42.544C141.574 42.544 141.559 42.4351 141.554 42.2481C141.555 42.1545 141.546 42.0453 141.571 41.909C141.594 41.7769 141.6 41.6041 141.67 41.4482C141.772 41.1222 141.986 40.7506 142.343 40.4388C142.538 40.3021 142.746 40.1541 143.001 40.0866C143.25 40.0155 143.524 39.9805 143.788 40.0129C144.05 40.0467 144.311 40.1315 144.522 40.256C144.756 40.3621 144.918 40.5426 145.087 40.6934C145.387 41.0288 145.575 41.3885 145.677 41.7058C145.786 42.0226 145.807 42.2996 145.822 42.4874C145.837 42.6766 145.83 42.7852 145.83 42.7852C145.83 42.7852 145.752 42.7008 145.641 42.5552C145.548 42.3994 145.365 42.2079 145.179 41.9844C144.987 41.764 144.752 41.5376 144.501 41.3414C144.367 41.2558 144.231 41.1703 144.093 41.1129C143.959 41.0394 143.811 41.0092 143.673 40.9987C143.111 40.8955 142.532 41.2838 142.166 41.7218C141.995 41.9335 141.822 42.1239 141.74 42.2978C141.643 42.4576 141.574 42.544 141.574 42.544Z" fill="#32292B"/>
<path d="M130.029 40.6166C130.029 40.6166 130.015 40.5064 130.009 40.3195C130.01 40.2258 130.001 40.1166 130.026 39.9803C130.049 39.8482 130.055 39.6754 130.125 39.5208C130.227 39.1935 130.441 38.8219 130.798 38.5101C130.993 38.3734 131.201 38.2254 131.457 38.1579C131.705 38.0868 131.979 38.0519 132.243 38.0842C132.505 38.1181 132.766 38.2028 132.977 38.3273C133.211 38.4348 133.373 38.6139 133.542 38.7647C133.842 39.1001 134.031 39.4598 134.132 39.7771C134.241 40.0939 134.262 40.3709 134.277 40.5587C134.292 40.7479 134.285 40.8565 134.285 40.8565C134.285 40.8565 134.207 40.7721 134.096 40.6252C134.003 40.4707 133.82 40.2792 133.634 40.0557C133.442 39.8353 133.208 39.6089 132.956 39.4114C132.823 39.3271 132.686 39.2416 132.548 39.1842C132.414 39.1107 132.266 39.0806 132.128 39.0701C131.566 38.9668 130.987 39.3565 130.621 39.7931C130.45 40.0048 130.277 40.1952 130.195 40.3691C130.098 40.529 130.029 40.6166 130.029 40.6166Z" fill="#32292B"/>
</g>
</svg>
