<svg width="649" height="651" viewBox="0 0 649 651" fill="none" xmlns="http://www.w3.org/2000/svg">
<path d="M0 80C0 35.8172 35.8172 0 80 0H569C613.183 0 649 35.8172 649 80V571C649 615.183 613.183 651 569 651H0V80Z" fill="#052742"/>
<mask id="mask0_474_4951" style="mask-type:alpha" maskUnits="userSpaceOnUse" x="0" y="0" width="649" height="651">
<path d="M0 80C0 35.8172 35.8172 0 80 0H569C613.183 0 649 35.8172 649 80V571C649 615.183 613.183 651 569 651H0V80Z" fill="#052742"/>
</mask>
<g mask="url(#mask0_474_4951)">
<path d="M504.022 251.646L510.112 234.473C510.112 234.473 522.489 228.084 520.893 210.077C519.301 192.066 486.291 188.939 485.647 198.826C485.647 198.826 468.846 215.437 486.658 227.472L486.872 247.111L504.022 251.646Z" fill="#F8A692"/>
<path d="M322.42 348.656L329.512 417.334L286.109 403.06L278.406 332.378L322.42 348.656Z" fill="#986B59"/>
<path d="M290.81 227.252C260.298 235.945 262.258 257.119 262.258 257.119C262.258 257.119 264.093 273.446 265.742 292.93C262.678 289.15 257.753 287.764 252.906 290.149C242.632 295.21 252.165 327.918 267.997 324.198C269.179 333.412 270.468 340.564 271.788 342.998C276.777 352.182 297.285 365.484 314.901 366.791C332.517 368.103 360.762 349.526 359.661 328.889C358.561 308.248 348.54 246.669 348.54 246.669C348.54 246.669 341.337 212.859 290.81 227.252Z" fill="#F8A692"/>
<path d="M311.082 266.975C311.082 266.975 309.841 265.502 307.371 264.238C306.147 263.602 304.627 262.998 302.892 262.669C302.027 262.504 301.111 262.333 300.161 262.345C299.224 262.269 298.233 262.438 297.257 262.487C295.325 262.912 293.346 263.52 291.83 264.717C291.023 265.232 290.362 265.863 289.836 266.555C289.247 267.181 288.79 267.834 288.509 268.522C287.783 269.788 287.552 270.969 287.453 271.791C287.337 272.605 287.323 273.058 287.323 273.058C287.323 273.058 287.72 272.754 288.312 272.241C288.876 271.706 289.667 270.994 290.659 270.308C291.61 269.595 292.735 268.911 293.986 268.423C294.561 268.077 295.287 268.013 295.926 267.746C296.576 267.505 297.326 267.45 298.023 267.291C298.765 267.223 299.477 267.019 300.236 267.039C300.981 267.013 301.73 266.899 302.471 266.927C303.956 266.879 305.386 266.929 306.663 266.929C309.187 267.007 311.082 266.975 311.082 266.975Z" fill="#432624"/>
<path d="M329.411 265.071C329.411 265.071 331.026 264.697 333.053 264.129C335.107 263.605 337.639 262.941 339.816 262.981C340.914 262.951 341.947 263.128 342.948 263.438C343.472 263.536 343.928 263.835 344.432 264.003C344.94 264.175 345.361 264.498 345.815 264.727C346.734 265.179 347.449 265.748 348.033 266.092C348.615 266.448 348.996 266.648 348.996 266.648C348.996 266.648 348.974 266.252 348.84 265.56C348.684 264.881 348.522 263.84 347.842 262.803C347.524 262.27 347.237 261.626 346.673 261.145C346.135 260.639 345.648 259.964 344.872 259.607C344.145 259.184 343.393 258.681 342.494 258.523C341.626 258.233 340.726 258.176 339.817 258.118C338.029 258.193 336.305 258.574 334.941 259.326C333.535 259.991 332.44 260.903 331.608 261.752C329.932 263.467 329.411 265.071 329.411 265.071Z" fill="#432624"/>
<path d="M299.094 329.927L338.358 329.898C338.358 329.898 329.848 348.539 299.094 329.927Z" fill="white"/>
<path d="M424.455 626.037C424.455 626.037 333.992 660.236 250.968 635.121L246.209 433.282L247.589 457.448C247.589 457.448 235.433 388.338 281.645 383.248C284.867 382.891 287.87 382.38 290.635 382.353L319.034 382.06L321.463 382.037L360.332 380.826L397.371 431.57L424.455 626.037Z" fill="#CCCDCE"/>
<path d="M339.562 520.419C321.286 514.126 302.976 505.868 287.554 493.913C275.032 484.205 262.921 468.884 247.714 463.791L249.686 649.148C353.503 649.09 433.725 649.045 433.725 649.045L409.877 522.111C386.344 527.353 360.957 527.78 339.562 520.419Z" fill="#D3D3D3"/>
<path d="M280.113 391.391L278.192 362.197L331.766 364.081L331.188 386.81L280.113 391.391Z" fill="#CCCDCE"/>
<path d="M319.038 382.06C319.038 382.06 350.448 382.73 378.963 377.29C399.763 373.325 463.868 335.993 463.868 335.993L482.947 241.6L512.233 248.6C512.233 248.6 507.831 356.266 495.491 370.053C485.747 380.944 383.373 436.001 383.373 436.001L319.038 382.06Z" fill="#CCCDCE"/>
<path d="M144.438 243.619L140.071 225.929C140.071 225.929 128.385 218.35 131.749 200.588C135.109 182.826 168.267 182.966 167.932 192.869C167.932 192.869 183.013 211.055 164.101 221.275L161.951 240.802L144.438 243.619Z" fill="#F8A692"/>
<path d="M315.665 391.645C315.665 391.645 289.75 387.042 261.91 378.816C241.603 372.819 176.085 331.519 176.085 331.519L166.408 235.7L136.574 239.782C136.574 239.782 130.337 347.354 141.257 362.29C149.879 374.093 246.324 438.978 246.324 438.978L315.665 391.645Z" fill="#CCCDCE"/>
<path d="M262.963 289.239C272.681 310.911 264.434 346.725 280.685 359.598C297.27 372.74 325.775 377.043 342.004 371.394C360.059 365.109 370.656 352.064 367.653 333.807C364.121 312.328 355.009 287.906 355.009 287.906C355.009 287.906 358.643 310.579 335.931 309.313C316.125 308.208 279.578 338.819 273.838 289.277C267.682 236.167 309.861 240.805 326.057 241.942C342.254 243.074 352.347 234.876 348.306 221.405L342.851 226.822C342.851 226.822 349.365 211.181 338.795 203.015C338.795 203.015 337.899 211.626 331.703 213.701C331.703 213.701 333.302 203.533 324.487 199.359C324.487 199.359 326.882 207.764 321.388 208.282C315.899 208.8 275.338 201.336 268.731 228.382C268.731 228.382 258.562 226.783 255.386 241.686C252.21 256.581 253.246 267.564 262.963 289.239Z" fill="#704644"/>
<path d="M325.392 270.063C326.976 276.596 329.052 282.935 331.381 289.173C333.727 295.4 336.279 301.548 339.122 307.581L339.92 305.97C336.136 307.252 332.394 308.693 328.702 310.32C332.704 309.821 336.656 309.139 340.565 308.299L341.813 308.029L341.363 306.683C339.256 300.36 336.859 294.147 334.256 288.022C331.636 281.899 328.762 275.882 325.392 270.063Z" fill="#B56760"/>
<path d="M303.528 325.631L344.67 319.463C344.67 319.463 344.434 336.317 321.945 336.562C315.163 336.634 305.763 335.22 303.528 325.631Z" fill="#E66B7A"/>
<path d="M332.978 334.642C328.943 330.714 323.459 327.986 316.333 327.634C312.034 327.421 308.296 328.114 305.08 329.45C304.43 328.334 303.873 327.11 303.526 325.631L344.668 319.463C344.668 319.463 344.483 330.188 332.978 334.642Z" fill="#722C35"/>
<path d="M309.427 283.695C309.427 283.695 309.473 283.353 309.49 282.766C309.488 282.472 309.517 282.129 309.437 281.701C309.366 281.286 309.346 280.743 309.127 280.253C308.804 279.229 308.131 278.062 307.007 277.083C306.394 276.654 305.741 276.189 304.937 275.977C304.154 275.753 303.295 275.644 302.462 275.745C301.638 275.851 300.819 276.118 300.153 276.509C299.418 276.842 298.907 277.409 298.375 277.882C297.433 278.936 296.84 280.066 296.522 281.062C296.178 282.057 296.11 282.928 296.064 283.517C296.018 284.112 296.039 284.453 296.039 284.453C296.039 284.453 296.283 284.188 296.633 283.73C296.926 283.241 297.502 282.639 298.087 281.938C298.692 281.245 299.429 280.534 300.219 279.918C300.64 279.649 301.069 279.38 301.502 279.2C301.925 278.969 302.392 278.875 302.826 278.841C304.593 278.517 306.414 279.737 307.564 281.113C308.102 281.778 308.648 282.376 308.907 282.922C309.209 283.424 309.427 283.695 309.427 283.695Z" fill="#32292B"/>
<path d="M345.743 277.641C345.743 277.641 345.79 277.295 345.806 276.708C345.804 276.414 345.833 276.071 345.754 275.642C345.682 275.227 345.663 274.685 345.443 274.199C345.12 273.171 344.447 272.004 343.324 271.025C342.711 270.595 342.058 270.13 341.253 269.918C340.471 269.695 339.611 269.585 338.779 269.687C337.954 269.793 337.135 270.059 336.469 270.45C335.734 270.788 335.223 271.351 334.692 271.824C333.749 272.878 333.156 274.008 332.838 275.004C332.495 275.999 332.426 276.869 332.38 277.459C332.334 278.053 332.355 278.394 332.355 278.394C332.355 278.394 332.599 278.129 332.95 277.668C333.243 277.183 333.818 276.581 334.403 275.879C335.009 275.187 335.745 274.476 336.536 273.856C336.956 273.591 337.385 273.322 337.818 273.142C338.241 272.911 338.708 272.816 339.142 272.783C340.909 272.459 342.73 273.683 343.88 275.054C344.419 275.719 344.965 276.317 345.223 276.864C345.526 277.366 345.743 277.641 345.743 277.641Z" fill="#32292B"/>
</g>
</svg>
