<svg width="173" height="173" viewBox="0 0 173 173" fill="none" xmlns="http://www.w3.org/2000/svg">
<g clip-path="url(#clip0_357_11422)">
<rect width="173" height="173" rx="86.5" fill="white"/>
<path fill-rule="evenodd" clip-rule="evenodd" d="M86.5 33.8939C66.5418 33.8939 50.3625 50.0827 50.3625 70.0526C50.3625 90.0224 66.5418 106.211 86.5 106.211C106.458 106.211 122.638 90.0224 122.638 70.0526C122.638 50.0827 106.458 33.8939 86.5 33.8939ZM61.7743 70.0526C61.7743 56.389 72.8444 45.3124 86.5 45.3124C100.156 45.3124 111.226 56.389 111.226 70.0526C111.226 83.7161 100.156 94.7927 86.5 94.7927C72.8444 94.7927 61.7743 83.7161 61.7743 70.0526Z" fill="#D9D9D9"/>
<path fill-rule="evenodd" clip-rule="evenodd" d="M63.6763 117.63C43.7181 117.63 27.5388 133.818 27.5388 153.788C27.5388 173.758 43.7181 189.947 63.6763 189.947H109.324C129.282 189.947 145.461 173.758 145.461 153.788C145.461 133.818 129.282 117.63 109.324 117.63H63.6763ZM38.9506 153.788C38.9506 140.125 50.0207 129.048 63.6763 129.048H109.324C122.979 129.048 134.049 140.125 134.049 153.788C134.049 167.452 122.979 178.528 109.324 178.528H63.6763C50.0207 178.528 38.9506 167.452 38.9506 153.788Z" fill="#D9D9D9"/>
</g>
<defs>
<clipPath id="clip0_357_11422">
<rect width="173" height="173" rx="86.5" fill="white"/>
</clipPath>
</defs>
</svg>
