<svg width="15" height="20" viewBox="0 0 15 20" fill="none" xmlns="http://www.w3.org/2000/svg">
<path fill-rule="evenodd" clip-rule="evenodd" d="M7.5 0C4.96127 0 2.90323 2.07478 2.90323 4.63415C2.90323 7.19351 4.96127 9.26829 7.5 9.26829C10.0387 9.26829 12.0968 7.19351 12.0968 4.63415C12.0968 2.07478 10.0387 0 7.5 0ZM4.35484 4.63415C4.35484 2.883 5.76298 1.46341 7.5 1.46341C9.23702 1.46341 10.6452 2.883 10.6452 4.63415C10.6452 6.38529 9.23702 7.80488 7.5 7.80488C5.76298 7.80488 4.35484 6.38529 4.35484 4.63415Z" fill="#1DCAD3"/>
<path fill-rule="evenodd" clip-rule="evenodd" d="M4.59677 10.7317C2.05805 10.7317 0 12.8065 0 15.3659C0 17.9252 2.05805 20 4.59677 20H10.4032C12.942 20 15 17.9252 15 15.3659C15 12.8065 12.942 10.7317 10.4032 10.7317H4.59677ZM1.45161 15.3659C1.45161 13.6147 2.85975 12.1951 4.59677 12.1951H10.4032C12.1403 12.1951 13.5484 13.6147 13.5484 15.3659C13.5484 17.117 12.1403 18.5366 10.4032 18.5366H4.59677C2.85975 18.5366 1.45161 17.117 1.45161 15.3659Z" fill="#1DCAD3"/>
</svg>
