<svg width="44" height="44" viewBox="0 0 44 44" fill="none" xmlns="http://www.w3.org/2000/svg">
<rect x="1.83472" y="2.07556" width="40.4245" height="40.4245" rx="20.2122" fill="#1DCAD3"/>
<rect x="1.83472" y="2.07556" width="40.4245" height="40.4245" rx="20.2122" stroke="#F1F2F6" stroke-width="3"/>
<path d="M19.3401 29.957L21.7516 25.6906C21.8686 25.4835 21.9714 25.3017 22.0633 25.1409M22.0633 25.1409C22.3484 24.6424 22.5297 24.3455 22.7108 24.1226C24.2104 22.2774 26.8847 21.9129 28.8235 23.2894C29.1312 23.5079 29.4734 23.8495 30.1538 24.5299M22.0633 25.1409L21.5958 24.9946C20.5171 24.7788 19.9778 24.671 19.4828 24.6815C18.158 24.7096 16.9126 25.3187 16.0771 26.3471C15.7649 26.7314 15.5189 27.2234 15.027 28.2073L14.9279 28.4055L14.8186 28.59M30.1538 24.5299C30.1673 23.8762 30.1673 23.135 30.1673 22.2878C30.1673 18.9045 30.1673 17.2129 29.3057 16.027C29.0275 15.644 28.6907 15.3072 28.3077 15.0289C27.1218 14.1674 25.4302 14.1674 22.0469 14.1674C18.6637 14.1674 16.972 14.1674 15.7862 15.0289C15.4032 15.3072 15.0664 15.644 14.7881 16.027C13.9265 17.2129 13.9265 18.9045 13.9265 22.2878C13.9265 25.671 13.9265 27.3627 14.7881 28.5485C14.7982 28.5624 14.8084 28.5763 14.8186 28.59M30.1538 24.5299C30.1133 26.4866 29.9516 27.6596 29.3057 28.5485C29.0275 28.9315 28.6907 29.2683 28.3077 29.5466C27.1218 30.4082 25.4302 30.4082 22.0469 30.4082C18.6637 30.4082 16.972 30.4082 15.7862 29.5466C15.4171 29.2784 15.0909 28.9559 14.8186 28.59M19.3401 19.581C19.3401 20.5776 20.148 21.3855 21.1447 21.3855C22.1413 21.3855 22.9492 20.5776 22.9492 19.581C22.9492 18.5843 22.1413 17.7764 21.1447 17.7764C20.148 17.7764 19.3401 18.5843 19.3401 19.581Z" stroke="#F1F2F6" stroke-width="1.5" stroke-linecap="round"/>
</svg>
