<svg width="350" height="407" viewBox="0 0 350 407" fill="none" xmlns="http://www.w3.org/2000/svg">
<path d="M231.969 282.591L184.247 280.249C182.127 280.145 180.379 278.643 180.066 276.658L168.906 205.893C168.501 203.324 170.623 201.022 173.37 201.051L220.804 201.566C222.994 201.59 224.842 203.114 225.166 205.163L236.615 277.756C237.029 280.392 234.785 282.729 231.969 282.591Z" fill="#8884D8"/>
<path d="M220.803 201.565L219.156 201.547L231.937 282.589L231.97 282.591C234.786 282.729 237.03 280.393 236.614 277.755L225.165 205.162C224.841 203.113 222.993 201.589 220.803 201.565Z" fill="#7E79DC"/>
<path d="M197.45 217.001C197.764 219.026 196.313 220.904 194.21 221.195C192.106 221.487 190.146 220.082 189.832 218.057C189.518 216.032 190.969 214.154 193.072 213.863C195.176 213.572 197.136 214.977 197.45 217.001Z" fill="#ABBAFE"/>
<path d="M199.282 213.002C199.406 213.804 198.832 214.548 197.998 214.664C197.164 214.78 196.388 214.223 196.264 213.421C196.14 212.619 196.714 211.875 197.548 211.759C198.381 211.643 199.157 212.2 199.282 213.002Z" fill="#ABBAFE"/>
<path d="M288.489 123C286.779 123 285.046 123.102 283.336 123.302C280.138 123.677 277.086 124.404 274.261 125.463C270.69 126.804 267.584 128.668 265.03 131.007C263.221 131.298 261.515 131.912 259.884 132.841C258.396 133.687 256.943 134.842 255.565 136.273C254.323 137.566 253.137 139.128 252.04 140.916C251.053 142.529 250.172 144.316 249.347 146.379C247.868 150.08 246.94 154.012 246.592 158.068C246.434 159.947 246.434 161.767 246.592 163.474C246.674 164.349 246.799 165.198 246.962 165.999C247.055 166.459 247.17 166.914 247.283 167.367L247.328 167.548C247.524 168.329 247.732 169.109 247.939 169.886L248.493 171.92C249.504 175.614 250.549 179.433 251.089 183.294C251.363 185.372 251.481 187.431 251.437 189.412C251.4 191.204 251.239 193.092 250.912 195.534C250.712 197.004 250.479 198.475 250.246 199.945C249.52 204.534 248.769 209.28 249.054 214.009C249.204 216.491 249.693 218.895 250.508 221.154C250.916 222.274 251.415 223.378 251.993 224.438C252.535 225.43 253.186 226.403 253.984 227.412C255.863 229.794 258.336 231.715 261.138 232.967C261.247 233.015 261.38 233.065 261.521 233.065C261.582 233.065 261.641 233.056 261.704 233.04C261.76 233.024 261.809 233.004 261.857 232.978C264.278 233.546 266.877 234.424 270.019 235.739L270.018 235.74C271.661 236.437 273.313 237.19 274.911 237.918L275.586 238.225C277.207 238.962 278.835 239.68 280.466 240.39C284.188 242.013 287.23 243.255 290.042 244.299C297.978 247.248 304.525 248.739 310.646 248.991C311.162 249.012 311.68 249.024 312.198 249.024C315.167 249.024 318.035 248.666 320.723 247.959C322.28 247.551 323.884 246.964 325.487 246.218C327.142 245.445 328.644 244.486 329.896 243.649C332.602 241.835 335.103 239.772 337.327 237.518C339.508 235.31 341.462 232.836 343.134 230.162C344.754 227.573 346.101 224.709 347.138 221.65C348.15 218.674 348.816 215.487 349.171 211.906C349.525 208.36 349.467 204.728 348.997 201.113C348.57 197.819 347.773 194.461 346.629 191.136C344.631 185.332 341.57 179.517 336.996 172.834C336.08 171.496 335.062 170.069 333.882 168.47L333.309 167.698C332.584 166.726 331.833 165.721 331.153 164.69C329.789 162.626 328.475 160.258 327.017 157.243C326.014 155.17 325.066 153.03 324.149 150.96C322.804 147.924 321.413 144.785 319.825 141.802C318.422 139.174 316.956 136.897 315.344 134.839C313.629 132.647 311.624 130.704 309.386 129.065C305.008 125.861 299.407 123.893 292.74 123.213C291.32 123.072 289.89 123 288.489 123Z" fill="#1DCAD3"/>
<path d="M269.03 138.959C269.052 138.955 269.071 138.951 269.094 138.947C267.927 139.109 266.768 139.325 265.63 139.619C264.542 139.902 263.473 140.253 262.438 140.685C262.442 140.681 262.446 140.681 262.45 140.677C261.713 140.99 260.988 141.338 260.297 141.743C259.625 142.132 258.987 142.554 258.371 143.027H258.375C257.854 143.435 257.355 143.869 256.891 144.337C256.461 144.77 256.058 145.23 255.677 145.708C255.679 145.707 255.679 145.705 255.68 145.704C255.67 145.717 255.661 145.729 255.648 145.742C255.652 145.738 255.655 145.738 255.655 145.734C255.655 145.738 255.652 145.742 255.648 145.742C255.24 146.279 254.858 146.838 254.523 147.416C254.167 148.024 253.854 148.655 253.571 149.304C253.566 149.318 253.56 149.33 253.555 149.343C253.553 149.351 253.551 149.356 253.548 149.36C253.551 149.355 253.553 149.349 253.555 149.343C253.557 149.339 253.559 149.335 253.559 149.33C253.208 150.184 252.906 151.056 252.679 151.947C252.554 152.427 252.441 152.914 252.35 153.401C252.252 153.922 252.169 154.443 252.098 154.968V154.956C251.855 156.805 251.743 158.669 251.777 160.532C251.811 162.33 251.959 164.121 252.192 165.904C252.195 165.92 252.197 165.937 252.199 165.953C252.2 165.955 252.2 165.957 252.2 165.959C252.2 165.957 252.199 165.955 252.199 165.953C252.199 165.951 252.198 165.95 252.196 165.948C252.57 168.671 253.141 171.364 253.767 174.038C254.568 177.441 255.455 180.825 256.139 184.259C256.479 185.963 256.782 187.673 256.993 189.4C257.227 191.307 257.326 193.233 257.314 195.16C257.303 197.082 257.209 199.004 257.076 200.924C256.944 202.846 256.785 204.765 256.661 206.688C256.536 208.602 256.438 210.521 256.445 212.44C256.449 213.437 256.475 214.43 256.54 215.428C256.596 216.326 256.687 217.225 256.804 218.121V218.113C256.917 218.921 257.05 219.722 257.227 220.519C257.375 221.192 257.541 221.864 257.734 222.528C258.15 223.964 258.652 225.369 259.23 226.748L259.207 226.691C260.16 228.943 261.301 231.109 262.609 233.173C264.841 233.753 267.218 234.58 270.014 235.752C271.563 236.41 273.119 237.115 274.524 237.757L274.906 237.931L275.582 238.24C277.203 238.977 278.83 239.694 280.462 240.405C284.175 242.021 287.219 243.264 290.037 244.314C297.954 247.259 304.503 248.751 310.649 249.008C311.166 249.027 311.684 249.038 312.201 249.038C315.177 249.038 318.048 248.679 320.733 247.973C321.085 247.88 321.439 247.779 321.794 247.667C321.953 247.511 322.11 247.356 322.267 247.198C323.729 245.725 325.104 244.161 326.376 242.518C327.656 240.849 328.843 239.096 329.904 237.271C330.927 235.5 331.842 233.668 332.638 231.784L332.615 231.84C333.374 230.019 334.032 228.154 334.553 226.246C335.07 224.35 335.468 222.424 335.74 220.474C335.736 220.497 335.732 220.52 335.728 220.539C335.985 218.651 336.121 216.743 336.121 214.835C336.117 212.973 335.993 211.115 335.744 209.267C335.748 209.29 335.752 209.312 335.755 209.332C335.513 207.579 335.166 205.841 334.694 204.135C334.214 202.393 333.621 200.686 332.923 199.021L332.945 199.077C332.594 198.258 332.224 197.446 331.819 196.649C331.411 195.837 330.973 195.043 330.527 194.254C329.451 192.346 328.344 190.458 327.226 188.577C325.315 185.363 323.374 182.163 321.523 178.915C319.653 175.636 317.874 172.309 316.288 168.883C314.697 165.453 313.187 161.986 311.525 158.59C310.693 156.894 309.833 155.209 308.904 153.563C308.451 152.77 307.997 151.972 307.499 151.206C307.113 150.621 306.709 150.047 306.283 149.492C305.694 148.741 305.067 148.016 304.387 147.346C303.737 146.708 303.058 146.115 302.344 145.556C301.516 144.925 300.648 144.351 299.741 143.841C298.873 143.354 297.977 142.919 297.063 142.531L297.119 142.553C294.868 141.617 292.511 140.952 290.128 140.446C288.836 140.173 287.54 139.935 286.241 139.725C284.995 139.524 283.744 139.335 282.494 139.165C282.513 139.169 282.536 139.173 282.559 139.177C279.913 138.824 277.237 138.6 274.564 138.6C272.712 138.604 270.864 138.711 269.03 138.959ZM255.674 145.712C255.67 145.72 255.661 145.728 255.654 145.734C255.662 145.727 255.67 145.72 255.674 145.712Z" fill="#1DCAD3"/>
<path d="M322.883 171.455C322.724 171.503 322.592 171.697 322.66 171.866C324.322 175.999 326.335 179.983 328.545 183.851C329.656 185.796 330.724 187.772 331.798 189.744C332.855 191.685 333.913 193.634 334.945 195.594C335.772 197.165 336.527 198.778 337.245 200.403C337.21 200.33 337.177 200.256 337.145 200.183C338.535 203.367 339.646 206.706 340.167 210.151C340.495 212.591 340.55 215.054 340.294 217.5C340.134 218.773 339.891 220.031 339.577 221.276C339.237 222.611 338.827 223.937 338.335 225.224C337.945 226.192 337.501 227.137 337.107 228.102C337.069 228.2 337.032 228.298 336.99 228.396C336.937 228.612 336.941 228.827 337.002 229.042C337.092 229.355 337.308 229.624 337.595 229.783C337.882 229.942 338.221 229.979 338.536 229.888C338.871 229.79 339.091 229.579 339.276 229.295C340.005 228.196 340.568 226.991 341.093 225.786C341.614 224.597 342.083 223.391 342.452 222.148C343.11 219.916 343.472 217.586 343.563 215.262C343.725 210.972 342.721 206.696 341.156 202.722C340.349 200.667 339.374 198.673 338.304 196.743C337.243 194.828 336.114 192.947 334.912 191.122C333.681 189.257 332.401 187.424 331.147 185.574C329.885 183.716 328.696 181.812 327.533 179.893C326.169 177.65 324.892 175.345 323.828 172.946C323.839 172.973 323.85 172.999 323.862 173.029C323.666 172.583 323.48 172.135 323.295 171.681C323.238 171.543 323.122 171.441 322.978 171.441C322.944 171.441 322.914 171.445 322.883 171.455ZM340.11 209.758C340.127 209.874 340.144 209.991 340.158 210.107C340.143 209.99 340.127 209.875 340.11 209.758ZM338.267 225.39C338.255 225.42 338.245 225.449 338.233 225.479C338.245 225.449 338.256 225.42 338.267 225.39ZM337.144 200.182C337.13 200.148 337.115 200.115 337.101 200.081C337.115 200.115 337.128 200.148 337.144 200.182Z" fill="#1DCAD3"/>
<path d="M323.154 156.716C322.995 156.772 322.905 156.954 322.965 157.109C323.902 159.655 325.012 162.132 326.228 164.557C326.836 165.766 327.47 166.963 328.116 168.149C328.777 169.362 329.442 170.566 330.133 171.76C331.485 174.098 332.853 176.428 334.197 178.774C335.541 181.121 336.834 183.497 338.054 185.909C338.048 185.896 338.041 185.884 338.035 185.871C339.081 187.948 340.044 190.068 340.917 192.224C341 192.428 341.133 192.598 341.337 192.697C341.537 192.799 341.775 192.814 341.987 192.739C342.406 192.591 342.667 192.096 342.5 191.669C341.511 189.127 340.306 186.672 338.987 184.284C337.658 181.874 336.196 179.54 334.73 177.214C334.001 176.047 333.253 174.891 332.513 173.731C331.772 172.572 331.047 171.404 330.322 170.234C328.877 167.898 327.492 165.527 326.249 163.074C325.243 161.069 324.327 159.015 323.546 156.905C323.498 156.782 323.378 156.699 323.251 156.699C323.22 156.699 323.186 156.703 323.154 156.716ZM326.268 163.107C326.275 163.119 326.281 163.131 326.286 163.144C326.28 163.132 326.273 163.12 326.268 163.107Z" fill="#1DCAD3"/>
<path d="M294.136 190.485C293.868 190.485 293.595 190.497 293.327 190.515C292.896 190.546 292.471 190.601 292.068 190.678C291.655 190.756 291.219 190.883 290.737 191.063C289.663 191.456 288.713 192.009 287.915 192.708C286.892 193.608 286.098 194.856 285.557 196.414C285.502 196.231 285.425 196.098 285.269 195.993C285.155 195.916 285.015 195.874 284.867 195.874C284.802 195.874 284.753 195.881 284.706 195.893C284.52 195.935 284.355 196.051 284.252 196.211C284.16 196.354 284.089 196.592 284.153 196.774C284.564 197.932 284.831 199.151 284.949 200.395C285.026 201.541 284.972 202.665 284.79 203.735C284.586 204.805 284.261 205.825 283.824 206.765C283.418 207.572 282.951 208.304 282.432 208.947C281.826 209.666 281.113 210.322 280.314 210.893C280.166 211 280.08 211.231 280.072 211.404C279.944 211.586 279.894 211.807 279.936 212.022C280.114 212.989 280.49 213.895 281.053 214.715C281.602 215.511 282.296 216.216 283.173 216.87C283.907 217.418 284.79 217.902 285.872 218.348C286.748 218.707 287.721 218.978 288.846 219.18C289.553 219.31 290.274 219.376 290.99 219.376C291.211 219.376 291.429 219.37 291.649 219.358C292.773 219.292 293.923 219.084 295.069 218.742C297.374 218.061 299.517 216.858 301.267 215.261C302.243 214.369 303.074 213.339 303.739 212.2C304.052 211.664 304.338 211.056 304.59 210.393C304.851 209.703 305.021 208.969 305.185 208.259L305.285 207.831C305.339 207.606 305.324 207.433 305.239 207.273C305.24 207.233 305.235 207.19 305.222 207.132C305.172 206.913 305.033 206.781 304.906 206.681C304.362 206.22 303.911 205.732 303.483 205.152C302.969 204.409 302.539 203.58 302.171 202.613C301.681 201.24 301.357 199.727 301.182 197.985C301.011 196.023 301.046 193.956 301.287 191.849C301.307 191.675 301.249 191.499 301.125 191.353C300.987 191.192 300.786 191.09 300.587 191.082C300.172 191.082 299.867 191.375 299.817 191.778C299.791 192.02 299.764 192.262 299.742 192.507C299.412 192.122 298.98 191.786 298.475 191.498C297.751 191.091 296.914 190.809 295.919 190.635C295.314 190.537 294.716 190.485 294.136 190.485Z" fill="#FDF0D5"/>
<path d="M293.327 190.491C292.843 190.533 292.432 190.586 292.065 190.657C291.639 190.74 291.204 190.869 290.728 191.05C289.663 191.432 288.712 191.987 287.904 192.693C286.876 193.592 286.083 194.842 285.539 196.406C285.517 196.21 285.434 196.081 285.279 195.98C285.158 195.897 285.018 195.851 284.867 195.851C284.799 195.851 284.746 195.863 284.697 195.881C284.508 195.923 284.338 196.04 284.237 196.206C284.138 196.35 284.071 196.599 284.134 196.784C284.546 197.947 284.814 199.164 284.927 200.394C285.001 201.444 284.963 202.469 284.815 203.452C285.132 203.554 285.453 203.648 285.777 203.733C285.759 203.726 285.735 203.722 285.713 203.715C286.476 203.907 287.251 204.054 288.032 204.137C288.814 204.22 289.597 204.254 290.386 204.24H290.318C291.103 204.217 291.885 204.153 292.66 204.024C293.392 203.903 294.111 203.741 294.82 203.529C294.798 203.537 294.778 203.541 294.759 203.548C295.42 203.348 296.074 203.114 296.704 202.831C297.297 202.566 297.871 202.268 298.426 201.936C298.408 201.948 298.392 201.954 298.374 201.966C298.925 201.631 299.462 201.264 299.968 200.86C300.44 200.478 300.886 200.07 301.313 199.632L301.268 199.677C301.314 199.63 301.36 199.581 301.405 199.533C301.322 199.037 301.253 198.523 301.2 197.985C301.026 196.025 301.06 193.959 301.305 191.847C301.324 191.674 301.263 191.492 301.135 191.337C300.996 191.174 300.796 191.076 300.584 191.058C300.172 191.058 299.847 191.357 299.794 191.779C299.768 192.021 299.742 192.262 299.719 192.508C299.44 192.13 299.017 191.787 298.48 191.484C297.751 191.073 296.913 190.79 295.92 190.616C295.308 190.514 294.711 190.461 294.137 190.461C293.868 190.461 293.595 190.472 293.327 190.491Z" fill="#FDF0D5"/>
<path d="M253.058 167.019C252.667 167.019 252.252 167.054 251.75 167.128C251.094 167.224 250.428 167.452 249.824 167.787C249.301 168.077 248.825 168.482 248.446 168.961C248.054 169.455 247.758 170.005 247.538 170.644C247.356 171.172 247.245 171.787 247.201 172.524C247.168 173.125 247.213 173.775 247.341 174.57C247.554 175.9 248.048 177.263 248.811 178.622C249.75 180.287 251.054 181.703 252.58 182.715C253.985 183.643 255.663 184.155 257.306 184.155C257.519 184.155 257.732 184.146 257.946 184.13C258.113 184.114 258.306 184.076 258.465 183.911C258.498 183.882 258.527 183.845 258.561 183.793C258.874 183.713 259.095 183.426 259.106 183.085C259.198 180.69 258.895 178.088 258.181 175.132C257.535 172.458 256.617 169.924 255.449 167.598C255.337 167.377 255.092 167.238 254.809 167.238C254.75 167.238 254.697 167.243 254.648 167.253C254.17 167.096 253.648 167.019 253.058 167.019Z" fill="#FDF0D5"/>
<path d="M249.262 169.935C249.133 169.957 249.058 170.112 249.088 170.229C249.123 170.369 249.254 170.425 249.383 170.403C249.419 170.398 249.456 170.392 249.494 170.387C249.486 170.388 249.478 170.388 249.47 170.388C249.483 170.387 249.494 170.386 249.507 170.385C249.517 170.384 249.526 170.382 249.534 170.381C249.527 170.382 249.52 170.384 249.513 170.385C249.832 170.353 250.145 170.359 250.464 170.391C250.878 170.448 251.272 170.557 251.659 170.71C251.659 170.71 251.658 170.71 251.658 170.709C252.073 170.895 252.462 171.117 252.829 171.39C252.802 171.367 252.772 171.345 252.746 171.321C253.105 171.6 253.444 171.903 253.761 172.232C254.067 172.543 254.35 172.873 254.619 173.216C254.829 173.496 255.022 173.789 255.193 174.093C255.367 174.396 255.767 174.501 256.069 174.328C256.216 174.245 256.322 174.105 256.368 173.942C256.41 173.787 256.398 173.591 256.303 173.455C255.91 172.885 255.484 172.345 254.977 171.869C254.467 171.386 253.867 170.985 253.243 170.664C252.635 170.35 251.993 170.112 251.325 169.965C251.012 169.897 250.691 169.866 250.373 169.852C250.314 169.849 250.256 169.847 250.198 169.847C249.886 169.847 249.571 169.886 249.262 169.935ZM249.507 170.385C249.503 170.385 249.498 170.386 249.494 170.387C249.5 170.386 249.506 170.384 249.512 170.384C249.511 170.384 249.509 170.385 249.507 170.385Z" fill="#FDF0D5"/>
<path d="M283.511 136.826C281.803 136.826 280.044 136.922 278.279 137.109C271.624 137.81 265.198 139.629 259.179 142.515C259.116 142.489 259.041 142.476 258.96 142.476C258.688 142.476 258.431 142.64 258.287 142.904C256.204 146.689 254.614 150.966 253.561 155.619C252.509 160.285 252.112 165.041 252.383 169.753C252.975 180.115 257.112 189.013 263.737 194.167C267.121 196.801 271.259 198.604 276.035 199.525C278.157 199.936 280.389 200.147 282.858 200.171L283.247 200.173C285.319 200.173 287.475 200.006 289.655 199.676C290.714 199.517 291.829 199.305 292.964 199.042C294.293 198.738 295.367 198.439 296.343 198.097C298.515 197.338 300.675 196.203 302.766 194.722C304.692 193.356 306.513 191.682 308.177 189.746C309.743 187.919 311.112 185.867 312.242 183.649C313.131 181.907 313.81 180.128 314.264 178.359C314.718 178.424 315.191 178.452 315.657 178.452C315.871 178.452 316.084 178.446 316.298 178.435C316.978 178.396 317.678 178.259 318.438 178.015C319.645 177.627 320.751 176.906 321.725 175.87C322.531 175.018 323.182 173.909 323.609 172.664C324.014 171.491 324.2 170.215 324.16 168.873C324.09 166.38 323.017 164.14 321.293 162.878C320.352 162.193 319.193 161.796 317.941 161.728C317.801 161.72 317.661 161.72 317.521 161.72C316.975 161.72 316.403 161.776 315.819 161.886C315.413 161.964 314.982 162.079 314.421 162.26C314.053 162.379 313.677 162.536 313.301 162.725C313.192 159.693 312.821 157.236 312.144 155.003C311.499 152.866 310.447 150.713 309.019 148.602C307.916 146.974 306.631 145.485 305.2 144.177C303.847 142.939 302.313 141.828 300.639 140.875C297.565 139.121 293.984 137.921 289.995 137.308C287.922 136.988 285.741 136.826 283.511 136.826Z" fill="#FDF0D5"/>
<path d="M315.443 165.05C315.27 165.344 315.371 165.738 315.666 165.907C315.766 165.967 315.858 166.037 315.95 166.106C316.166 166.286 316.363 166.478 316.543 166.692C316.746 166.963 316.917 167.255 317.061 167.56C317.275 168.078 317.409 168.615 317.492 169.168C317.539 169.577 317.546 169.99 317.542 170.398C317.539 170.833 317.488 171.264 317.432 171.692C317.434 171.684 317.436 171.676 317.437 171.668C317.434 171.689 317.43 171.711 317.427 171.733C317.425 171.746 317.423 171.758 317.421 171.77C317.422 171.763 317.423 171.756 317.424 171.75C317.305 172.503 317.127 173.246 316.839 173.956C316.667 174.356 316.47 174.742 316.216 175.098C316.141 175.208 316.197 175.367 316.303 175.431C316.424 175.503 316.559 175.45 316.636 175.344C317.153 174.611 317.53 173.792 317.845 172.958C318.21 171.991 318.43 170.975 318.502 169.943C318.571 168.958 318.498 167.934 318.155 167.001C317.989 166.548 317.759 166.133 317.448 165.755C317.301 165.574 317.139 165.408 316.958 165.257C316.863 165.178 316.761 165.105 316.663 165.034C316.55 164.955 316.421 164.895 316.3 164.826C316.201 164.77 316.093 164.743 315.987 164.743C315.771 164.74 315.56 164.851 315.443 165.05ZM317.079 167.597C317.089 167.619 317.099 167.642 317.109 167.664C317.098 167.642 317.088 167.619 317.079 167.597ZM316.833 173.973C316.83 173.982 316.826 173.989 316.822 173.998C316.826 173.989 316.829 173.982 316.833 173.973ZM317.425 171.749C317.426 171.743 317.426 171.738 317.427 171.733C317.429 171.719 317.431 171.707 317.433 171.692C317.43 171.711 317.427 171.73 317.425 171.749Z" fill="#FDF0D5"/>
<path d="M316.803 163.953C316.535 164.009 316.274 164.134 316.044 164.278C315.768 164.455 315.553 164.708 315.394 164.995C315.269 165.233 315.296 165.524 315.489 165.716C315.598 165.825 315.753 165.89 315.908 165.89L316.067 165.867C316.163 165.842 316.244 165.795 316.313 165.73C316.615 165.515 316.926 165.318 317.26 165.162C317.517 165.063 317.777 164.992 318.05 164.95C318.438 164.91 318.826 164.913 319.209 164.962C319.512 165.011 319.798 165.093 320.079 165.207C320.056 165.195 320.03 165.184 320.007 165.173C320.245 165.275 320.467 165.392 320.679 165.542C320.663 165.527 320.645 165.516 320.63 165.5C320.739 165.587 320.834 165.682 320.929 165.78C321.02 165.879 321.182 165.871 321.272 165.78C321.367 165.686 321.359 165.535 321.272 165.441C320.94 165.078 320.547 164.772 320.117 164.53C319.887 164.398 319.637 164.296 319.392 164.195C319.097 164.074 318.792 163.987 318.478 163.93C318.216 163.883 317.953 163.858 317.689 163.858C317.392 163.857 317.095 163.888 316.803 163.953ZM316.327 165.716C316.329 165.714 316.332 165.712 316.334 165.71C316.331 165.713 316.328 165.715 316.325 165.717L316.327 165.716Z" fill="#FDF0D5"/>
<path d="M280.426 132.759C278.492 132.759 276.535 132.891 274.608 133.152C270.696 133.677 266.983 134.754 263.572 136.356C261.888 137.145 260.26 138.095 258.729 139.178C257.235 140.23 255.795 141.492 254.452 142.931C254.326 143.064 254.298 143.304 254.324 143.471C254.346 143.611 254.41 143.744 254.507 143.854C254.498 143.964 254.521 144.092 254.571 144.206C254.856 144.867 255.268 145.477 255.633 145.998C256.079 146.628 256.613 147.279 257.265 147.986C257.89 148.663 258.588 149.329 259.4 150.023C260.135 150.654 260.915 151.222 261.721 151.712C263.291 152.664 264.692 153.126 266.002 153.126C266.205 153.126 266.408 153.115 266.611 153.092C267.401 153 268.206 152.629 268.765 152.099C269.349 151.548 269.661 150.732 269.645 149.803C269.635 149.239 269.531 148.658 269.32 147.976C269.218 147.659 269.108 147.342 268.984 147.031C270.837 148.885 273.049 150.476 275.542 151.772C279.405 153.775 283.782 154.938 288.2 155.135C288.576 155.151 288.951 155.16 289.328 155.16C291.177 155.16 293.045 154.96 294.88 154.568C295.92 154.343 296.976 154.031 298.017 153.642C298.527 153.448 299.049 153.224 299.57 152.978C299.834 152.853 300.096 152.724 300.352 152.592C300.455 152.539 300.556 152.482 300.655 152.422C301.398 154.354 302.111 155.92 302.889 157.348C303.443 158.363 304.045 159.311 304.681 160.163C305.392 161.122 306.109 161.912 306.873 162.578C307.257 162.909 307.669 163.219 308.097 163.5C308.49 163.755 308.948 163.99 309.538 164.241C310.3 164.562 311.082 164.731 311.801 164.731C312.001 164.731 312.201 164.718 312.399 164.69C313.149 164.584 313.833 164.212 314.325 163.645C314.777 163.126 315.109 162.427 315.312 161.567C315.501 160.759 315.572 159.833 315.528 158.74C315.5 157.972 315.408 157.148 315.256 156.291C315.289 156.225 315.312 156.146 315.324 156.06C315.575 154.18 315.157 152.106 314.114 150.064C313.273 148.408 312.041 146.784 310.35 145.103C308.885 143.651 307.205 142.279 305.216 140.908C303.624 139.806 301.891 138.756 299.919 137.701C297.939 136.646 296.268 135.873 294.661 135.268C292.681 134.523 290.515 133.924 288.223 133.489C285.696 133.004 283.074 132.759 280.426 132.759Z" fill="#1DCAD3"/>
<path d="M269.342 143.837C269.255 143.972 269.285 144.176 269.429 144.263C271.223 145.305 273.043 146.306 274.932 147.172C277.04 148.139 279.208 148.947 281.417 149.653C282.532 150.012 283.672 150.299 284.817 150.541C285.969 150.787 287.136 150.975 288.307 151.096C289.425 151.214 290.554 151.228 291.677 151.157C292.802 151.085 293.917 150.927 295.016 150.666C296.009 150.424 296.984 150.077 297.909 149.646C298.373 149.428 298.823 149.178 299.257 148.903C299.506 148.744 299.752 148.574 299.99 148.397C300.198 148.241 300.386 148.064 300.594 147.902C300.984 147.603 300.98 146.98 300.67 146.629C300.507 146.452 300.277 146.342 300.04 146.331C299.791 146.315 299.587 146.41 299.398 146.557C299.388 146.564 299.38 146.571 299.371 146.579C298.796 146.951 298.21 147.308 297.603 147.63C296.973 147.964 296.316 148.246 295.646 148.485C294.251 148.954 292.807 149.23 291.339 149.36C290.125 149.45 288.913 149.452 287.699 149.398C286.38 149.335 285.07 149.159 283.768 148.935C283.801 148.941 283.835 148.946 283.869 148.952C282.85 148.763 281.834 148.54 280.829 148.279C279.79 148.007 278.763 147.679 277.75 147.328C275.828 146.66 273.951 145.87 272.118 144.99C272.122 144.993 272.127 144.995 272.131 144.997C271.328 144.607 270.539 144.199 269.765 143.755C269.711 143.722 269.65 143.705 269.592 143.705C269.494 143.703 269.402 143.748 269.342 143.837ZM295.729 148.456C295.716 148.46 295.704 148.465 295.691 148.47C295.703 148.465 295.716 148.46 295.729 148.456Z" fill="#1DCAD3"/>
<path d="M266.586 137.314C266.511 137.427 266.544 137.575 266.654 137.65C268.237 138.764 269.846 139.836 271.53 140.793C273.204 141.741 274.941 142.568 276.735 143.256C278.53 143.942 280.387 144.479 282.277 144.827C283.202 144.996 284.128 145.129 285.064 145.196C286.069 145.269 287.073 145.245 288.075 145.154C288.196 145.128 288.301 145.075 288.392 144.992C288.535 144.867 288.618 144.69 288.63 144.502C288.638 144.32 288.573 144.139 288.452 144.003C288.339 143.874 288.139 143.757 287.961 143.769C286.794 143.841 285.634 143.871 284.467 143.829C283.277 143.788 282.093 143.659 280.921 143.45C280.298 143.333 279.681 143.198 279.069 143.04C278.374 142.862 277.69 142.647 277.01 142.416C275.664 141.965 274.343 141.418 273.064 140.809C270.928 139.777 268.863 138.604 266.918 137.246C266.879 137.218 266.835 137.206 266.79 137.206C266.712 137.207 266.632 137.246 266.586 137.314Z" fill="#1DCAD3"/>
<path d="M303.65 150.632C303.521 150.674 303.458 150.81 303.495 150.938C303.778 151.89 304.118 152.827 304.53 153.733C304.95 154.651 305.437 155.528 305.973 156.377C306.487 157.201 307.102 157.945 307.744 158.667C308.077 159.034 308.432 159.381 308.79 159.717C309.194 160.09 309.602 160.457 310.026 160.808C310.305 161.039 310.721 161.027 310.966 160.748C311.08 160.619 311.14 160.445 311.132 160.276C311.118 160.027 310.974 159.834 310.763 159.713C310.491 159.557 310.227 159.395 309.965 159.225C308.962 158.537 308.056 157.705 307.254 156.797C307.266 156.809 307.278 156.822 307.29 156.836C306.854 156.335 306.435 155.816 306.056 155.268C305.651 154.679 305.297 154.054 304.983 153.415C304.985 153.419 304.986 153.424 304.988 153.429C304.576 152.571 304.229 151.695 303.953 150.784C303.922 150.684 303.824 150.621 303.724 150.621C303.699 150.619 303.674 150.624 303.65 150.632ZM309.875 159.164C309.886 159.172 309.896 159.179 309.908 159.186C309.897 159.179 309.886 159.172 309.875 159.164ZM307.325 156.876C307.313 156.862 307.301 156.849 307.289 156.835C307.301 156.848 307.313 156.862 307.325 156.876ZM304.983 153.415C304.975 153.398 304.966 153.381 304.958 153.363L304.983 153.415Z" fill="#1DCAD3"/>
<path d="M141.885 372.82C141.59 372.82 141.331 372.979 141.223 373.223C141.094 373.525 140.959 373.823 140.816 374.121C140.663 374.235 140.563 374.403 140.532 374.596C140.524 374.634 140.524 374.676 140.524 374.719C139.948 375.858 139.283 376.982 138.493 378.151C138.486 378.16 138.48 378.169 138.474 378.179L138.482 378.183H138.471L138.472 378.181C136.593 380.883 134.295 383.49 131.193 386.455C130.035 387.563 128.782 388.704 127.13 390.153C125.793 391.323 124.503 392.452 123.197 393.56C122.735 393.939 122.292 394.273 121.85 394.604L121.611 394.784C120.901 395.317 120.198 395.849 119.511 396.411C118.218 397.472 116.767 398.737 115.901 400.346C115.516 401.062 115.332 401.819 115.367 402.533C115.381 402.877 115.465 403.238 115.606 403.576C115.765 403.955 115.986 404.301 116.348 404.73C116.598 405.02 116.916 405.293 117.347 405.59C117.744 405.867 118.131 406.086 118.532 406.263C119.267 406.594 120.09 406.804 120.978 406.887C121.306 406.919 121.634 406.933 121.96 406.933C123.064 406.933 124.258 406.768 125.611 406.427C127.034 406.072 128.515 405.541 130.414 404.708C132.19 403.93 133.944 403.033 135.639 402.167C136.915 401.514 138.234 400.84 139.554 400.221C140.169 399.939 140.9 399.614 141.661 399.341C141.927 399.246 142.197 399.164 142.466 399.083L142.817 398.976C143.373 398.801 143.92 398.609 144.461 398.408C146.516 397.633 148.218 396.727 149.664 395.639C150.388 395.095 151.06 394.491 151.66 393.847C152.208 393.26 152.729 392.579 153.251 391.764C154.134 390.387 154.81 388.764 155.319 386.802C155.541 385.942 155.724 384.984 155.878 383.874C156.016 382.863 156.091 381.828 156.162 380.828L156.199 380.314L156.243 379.827C156.309 379.098 156.376 378.345 156.339 377.597C156.325 377.211 155.995 376.897 155.605 376.897C155.391 376.909 155.224 376.984 155.099 377.108C154.839 376.69 154.503 376.303 154.115 375.955C153.678 375.562 153.114 375.213 152.439 374.919C151.89 374.675 151.271 374.488 150.432 374.311C148.984 374.01 147.465 373.977 146.154 373.97C145.516 373.97 144.878 373.983 144.239 373.994C143.638 374.006 143.053 374.016 142.468 374.016L142.528 373.882L142.537 373.886C142.706 373.5 142.566 373.076 142.211 372.899C142.11 372.847 141.998 372.82 141.885 372.82Z" fill="#B0A6E6"/>
<path d="M151.534 385.233H151.531C151.529 385.234 151.526 385.236 151.523 385.237C151.509 385.237 151.499 385.24 151.485 385.244C151.109 385.352 150.749 385.494 150.405 385.683C150.41 385.682 150.415 385.68 150.419 385.678C150.426 385.673 150.435 385.668 150.442 385.664C150.434 385.669 150.426 385.675 150.419 385.678C150.031 385.901 149.684 386.177 149.357 386.491C148.95 386.914 148.606 387.386 148.311 387.892C147.869 388.678 147.552 389.527 147.314 390.4C147.322 390.381 147.326 390.358 147.333 390.339C147 391.612 146.849 392.919 146.838 394.234C146.841 395.244 146.926 396.258 147.113 397.252C148.048 396.767 148.897 396.236 149.675 395.654C150.404 395.099 151.076 394.499 151.673 393.86C152.236 393.248 152.757 392.564 153.264 391.771C154.144 390.404 154.824 388.779 155.333 386.808C155.42 386.481 155.5 386.133 155.577 385.761C155.157 385.582 154.725 385.428 154.279 385.308H154.283C153.758 385.176 153.225 385.1 152.686 385.092C152.299 385.101 151.915 385.146 151.534 385.233Z" fill="#A48BE6"/>
<path d="M151.531 385.233H151.534C151.537 385.231 151.54 385.229 151.542 385.229C151.54 385.229 151.536 385.231 151.531 385.233Z" fill="#A48BE6"/>
<path d="M151.508 385.237H151.523L151.525 385.236C151.52 385.237 151.514 385.237 151.508 385.237Z" fill="#A48BE6"/>
<path d="M151.491 385.241C151.498 385.24 151.503 385.239 151.508 385.236C151.503 385.239 151.497 385.24 151.491 385.241Z" fill="#A48BE6"/>
<path d="M119.498 396.398C118.202 397.464 116.748 398.732 115.883 400.337C115.493 401.058 115.309 401.817 115.346 402.536C115.358 402.875 115.441 403.242 115.588 403.586C115.743 403.955 115.966 404.303 116.333 404.745C116.593 405.047 116.914 405.319 117.338 405.606C117.742 405.886 118.127 406.109 118.524 406.279C119.253 406.608 120.077 406.818 120.975 406.909C121.308 406.939 121.633 406.955 121.961 406.955C123.06 406.955 124.257 406.789 125.617 406.442C126.218 406.294 126.833 406.112 127.492 405.887C127.43 405.219 127.313 404.558 127.147 403.908C126.849 402.779 126.41 401.695 125.829 400.678L125.863 400.734C125.36 399.877 124.767 399.083 124.065 398.385C124.079 398.399 124.095 398.415 124.113 398.43C123.845 398.169 123.57 397.92 123.275 397.697C122.984 397.474 122.682 397.27 122.365 397.085L122.421 397.119C121.881 396.813 121.315 396.572 120.718 396.402C120.736 396.41 120.756 396.414 120.774 396.42C120.491 396.345 120.201 396.281 119.91 396.243C119.845 396.233 119.781 396.226 119.717 396.218C119.644 396.278 119.571 396.338 119.498 396.398Z" fill="#A48BE6"/>
<path d="M194.392 278.312C191.136 278.663 187.914 279.196 184.81 279.899C183.273 280.246 181.686 280.666 180.092 281.138C178.581 281.591 177.369 282.006 176.274 282.444C174.215 283.264 172.232 284.306 170.374 285.538C168.667 286.671 167.001 288.042 165.434 289.602C162.669 292.344 160.176 295.826 158.027 299.951C156.195 303.472 154.593 307.52 153.129 312.336C151.686 317.08 150.625 321.861 149.858 325.499C149.367 327.852 148.903 330.213 148.441 332.569C148.067 334.477 147.697 336.381 147.304 338.284C146.931 340.124 146.529 341.959 146.129 343.796L145.525 346.587C144.778 350.07 144.041 353.556 143.323 357.046C142.02 363.41 140.929 369.11 139.976 374.465C139.942 374.651 139.976 374.835 140.067 374.994C140.105 375.123 140.172 375.232 140.267 375.315C142.219 377.102 144.664 378.537 147.331 379.462C149.333 380.157 151.296 380.508 153.159 380.508C153.986 380.508 154.802 380.436 155.575 380.297C155.749 380.27 155.885 380.232 156.014 380.131C156.093 380.123 156.169 380.104 156.233 380.078C156.441 379.991 156.55 379.832 156.633 379.674C158.178 376.676 159.821 373.646 161.509 370.674C163.197 367.72 165.014 364.687 166.771 361.756C170.74 355.131 174.85 348.283 178.098 341.122C181.173 334.353 183.028 328.211 183.764 322.35L218.033 322.358H252.756H276.279C276.762 322.332 277.244 322.302 277.726 322.266C277.736 322.259 277.745 322.253 277.754 322.249C279.125 321.984 280.5 321.546 281.844 320.949C282.781 320.533 283.763 320.008 284.931 319.302C286.948 318.078 288.934 316.59 290.83 314.878C292.719 313.171 294.46 311.26 296.009 309.193C297.547 307.142 298.803 304.963 299.737 302.719C300.561 300.744 301.07 298.723 301.245 296.713C301.267 296.475 301.154 296.237 300.942 296.083C300.912 295.943 300.837 295.807 300.731 295.709C300.591 295.577 300.428 295.517 300.194 295.513C298.43 295.464 296.663 295.362 294.943 295.214L294.951 295.218C285.516 294.376 275.594 292.069 265.463 288.356L265.546 288.408L265.637 288.443C259.812 286.278 254.018 283.702 248.413 280.76C248.308 280.708 248.195 280.681 248.078 280.681C247.892 280.681 247.715 280.75 247.575 280.874L246.744 280.798L245.973 280.734C245.535 280.696 245.176 280.662 244.824 280.629L244.703 280.621L243.918 280.546L243.284 280.485C240.651 280.236 238.026 279.964 235.397 279.692L233.596 279.506C227.001 278.826 220.538 278.192 213.958 277.879C211.428 277.758 208.939 277.697 206.559 277.697C202.227 277.696 198.245 277.897 194.392 278.312Z" fill="#427590"/>
<path d="M239.482 280.217C239.485 280.198 239.489 280.175 239.493 280.157C239.429 280.481 239.376 280.81 239.358 281.146C239.335 281.467 239.331 281.788 239.346 282.113C239.346 282.105 239.342 282.101 239.342 282.098C239.342 282.113 239.346 282.132 239.346 282.147V282.155C239.38 282.692 239.448 283.224 239.562 283.749C239.675 284.267 239.814 284.777 239.981 285.283C239.973 285.261 239.967 285.241 239.959 285.219C240.623 287.183 241.624 289.007 242.761 290.733C242.749 290.717 242.739 290.699 242.727 290.684C243.785 292.275 244.963 293.789 246.232 295.221C247.29 296.41 248.4 297.551 249.586 298.616C249.57 298.602 249.555 298.59 249.54 298.574C250.525 299.447 251.565 300.259 252.663 300.981C253.653 301.631 254.676 302.223 255.726 302.767L255.722 302.763C257.535 303.692 259.417 304.474 261.309 305.215C263.205 305.951 265.116 306.654 266.998 307.435C267.262 307.545 267.53 307.658 267.795 307.771C268.071 307.888 268.346 308.005 268.614 308.141C268.984 308.33 269.359 308.522 269.702 308.757C270.265 309.134 270.821 309.584 271.168 310.176C271.247 310.312 271.327 310.449 271.376 310.596C271.421 310.721 271.467 310.845 271.489 310.974C271.531 311.2 271.553 311.438 271.523 311.664C271.493 311.899 271.44 312.133 271.346 312.349C271.244 312.583 271.123 312.809 270.972 313.013C270.632 313.477 270.221 313.881 269.759 314.222C269.249 314.6 268.705 314.936 268.138 315.219C267.375 315.601 266.586 315.918 265.778 316.186C264.985 316.451 264.187 316.689 263.379 316.889C261.57 317.339 259.735 317.648 257.884 317.837C256.059 318.023 254.224 318.12 252.392 318.147C248.619 318.207 244.853 318.018 241.084 317.905C239.123 317.844 237.167 317.826 235.211 317.802C233.111 317.78 231.011 317.756 228.914 317.742C224.717 317.707 220.521 317.689 216.324 317.693C212.127 317.697 207.932 317.731 203.739 317.776C201.643 317.794 199.55 317.817 197.458 317.848C196.37 317.863 195.282 317.878 194.195 317.897C193.692 317.905 193.19 317.915 192.691 317.923C192.388 317.931 192.087 317.939 191.784 317.935C190.613 317.92 189.442 317.829 188.272 317.773C186.911 317.708 185.548 317.664 184.185 317.727C184.19 317.724 184.194 317.724 184.197 317.723C183.348 317.772 182.496 317.855 181.677 318.112C181.7 318.105 181.719 318.098 181.742 318.09C181.606 318.135 181.469 318.185 181.338 318.245C181.212 318.308 181.093 318.374 180.972 318.449C180.963 318.456 180.954 318.461 180.945 318.468C180.952 318.463 180.958 318.458 180.964 318.455C180.956 318.459 180.948 318.464 180.942 318.468C180.832 318.547 180.722 318.623 180.624 318.717C180.564 318.77 180.503 318.831 180.447 318.891C180.451 318.887 180.455 318.879 180.459 318.875C180.456 318.878 180.45 318.885 180.446 318.891H180.447L180.443 318.895C180.435 318.903 180.424 318.911 180.417 318.921L180.439 318.899C180.356 318.997 180.273 319.095 180.205 319.205C180.16 319.272 180.121 319.337 180.083 319.407C180.079 319.413 180.076 319.419 180.072 319.425C179.977 319.621 179.891 319.817 179.83 320.029C179.774 320.218 179.725 320.41 179.683 320.603C179.687 320.584 179.694 320.561 179.697 320.542C179.535 321.347 179.448 322.163 179.278 322.967C179.086 323.881 178.854 324.792 178.609 325.694C178.077 327.651 177.465 329.589 176.766 331.492C176.041 333.467 175.24 335.421 174.356 337.335C173.932 338.254 173.498 339.167 173.042 340.069C172.607 340.934 172.157 341.792 171.715 342.653C171.727 342.635 171.734 342.615 171.746 342.601C171.598 342.884 171.455 343.168 171.308 343.451C169.997 346.008 168.697 348.572 167.383 351.129C167.379 351.145 167.371 351.159 167.361 351.175C165.064 355.655 162.733 360.119 160.274 364.512C158.326 367.99 156.301 371.431 154.145 374.786C153.586 375.658 153.016 376.528 152.423 377.38C151.879 378.158 151.32 378.933 150.749 379.696C150.606 379.888 150.462 380.08 150.317 380.272C151.284 380.443 152.232 380.53 153.156 380.53C153.979 380.53 154.795 380.462 155.576 380.318C155.754 380.288 155.893 380.25 156.026 380.149C156.09 380.145 156.169 380.126 156.238 380.096C156.457 380.005 156.567 379.835 156.646 379.684C158.153 376.761 159.795 373.732 161.522 370.684C163.24 367.684 165.042 364.674 166.783 361.766L166.855 361.649C170.802 355.065 174.878 348.259 178.111 341.131C181.193 334.359 183.047 328.214 183.784 322.351L218.031 322.378H252.754H276.278C276.758 322.351 277.241 322.321 277.725 322.287C279.134 322.004 280.524 321.558 281.85 320.965C282.764 320.561 283.746 320.04 284.936 319.318C286.953 318.098 288.94 316.606 290.844 314.894C292.725 313.195 294.466 311.28 296.022 309.205C297.567 307.144 298.821 304.964 299.75 302.727C300.581 300.733 301.09 298.712 301.264 296.715C301.286 296.473 301.169 296.231 300.954 296.069C300.923 295.929 300.844 295.792 300.742 295.695C300.595 295.559 300.425 295.495 300.191 295.491C298.479 295.445 296.712 295.347 294.94 295.192C285.509 294.354 275.594 292.049 265.468 288.336L265.532 288.423C259.651 286.191 253.891 283.615 248.418 280.745C248.308 280.688 248.191 280.658 248.074 280.658C247.885 280.658 247.708 280.726 247.557 280.858L246.741 280.775L245.97 280.711C245.532 280.673 245.173 280.639 244.822 280.605L244.701 280.598L243.915 280.522L243.281 280.462C242.023 280.344 240.767 280.22 239.51 280.094C239.501 280.135 239.491 280.175 239.482 280.217ZM239.346 282.147V282.113V282.155V282.147Z" fill="#3D6D86"/>
<path d="M180.963 318.454C180.965 318.452 180.968 318.45 180.971 318.448C180.979 318.443 180.984 318.437 180.989 318.434C180.981 318.44 180.972 318.447 180.963 318.454Z" fill="#3D6D86"/>
<path d="M281.854 208.372L281.774 208.38C277.547 208.958 273.711 210.105 270.372 211.788C266.287 213.846 263.49 216.523 262.057 219.748C261.255 221.546 260.901 223.643 261.033 225.815C261.093 226.838 261.296 227.943 261.638 229.1C261.937 230.105 262.372 231.078 262.931 231.995C263.441 232.845 264.095 233.607 264.821 234.2C265.563 234.798 266.404 235.21 267.322 235.426C267.676 235.503 268.039 235.543 268.4 235.543C268.97 235.543 269.579 235.45 270.208 235.266C270.793 235.097 271.328 234.818 271.68 234.623C272.164 234.369 272.678 234.011 273.298 233.496C274.76 232.274 276.118 230.657 277.447 228.554C278.532 226.851 279.478 224.895 280.259 222.739C280.997 220.721 281.56 218.597 281.937 216.426C282.107 215.404 282.236 214.334 282.318 213.245C282.394 212.199 282.394 211.132 282.394 210.101L282.398 209.617C282.53 209.488 282.601 209.287 282.591 209.073C282.548 208.692 282.211 208.372 281.854 208.372Z" fill="#FDFEFD"/>
<path d="M303.852 205.177C303.847 205.177 303.835 205.19 303.835 205.194C303.489 205.679 303.097 206.166 302.671 206.638L302.52 206.801C301.75 207.837 300.809 208.813 299.642 209.784C297.992 211.112 296.298 212.177 294.605 212.952C293.06 213.629 291.462 214.115 289.859 214.399C289.09 214.526 288.367 214.587 287.648 214.587C287.336 214.587 287.026 214.576 286.712 214.549C286.147 214.485 285.611 214.368 285.117 214.203C284.731 214.045 284.406 213.878 284.127 213.691C283.854 213.485 283.614 213.257 283.414 213.013C283.238 212.782 283.085 212.531 282.962 212.263C282.818 211.918 282.705 211.535 282.627 211.125C282.556 210.642 282.532 210.127 282.555 209.549C282.54 209.359 282.532 209.174 282.54 208.986C282.544 208.83 282.552 208.673 282.57 208.522L282.413 208.514C281.972 208.663 281.549 208.828 281.125 209.014C280.512 209.29 279.926 209.605 279.383 209.948C278.857 210.28 278.322 210.667 277.792 211.101C277.455 211.376 277.103 211.69 276.763 212.019C276.601 212.182 276.438 212.349 276.28 212.518L275.758 213.193L275.637 213.35L275.407 213.649C274.403 214.961 273.366 216.318 272.087 217.417L271.712 217.661C271.492 217.804 271.311 217.922 271.134 218.025C270.485 218.393 269.801 218.691 269.156 218.965C267.907 219.697 266.767 220.424 265.668 221.187C263.665 222.572 261.887 224.057 260.379 225.604C258.736 227.303 257.415 229.097 256.452 230.939C255.936 231.923 255.508 232.949 255.179 233.989C254.854 235.03 254.62 236.149 254.484 237.314C254.277 239.104 254.377 241.06 254.787 243.296C255.193 245.504 255.454 247.482 255.588 249.342L255.641 249.246C255.747 251.759 255.624 253.948 255.247 255.934C254.92 257.497 254.407 259.001 253.722 260.403C252.992 261.841 252.032 263.242 250.868 264.568C250.114 265.407 249.267 266.23 248.122 267.238L247.729 267.581C246.919 268.291 246.129 268.981 245.402 269.707C244.457 270.663 243.729 271.593 243.175 272.55C242.888 273.045 242.629 273.601 242.404 274.203C242.188 274.772 242.022 275.416 241.878 276.23C241.465 278.539 241.8 281.119 242.873 283.898C243.739 286.159 245.148 288.457 247.059 290.73C250.033 294.272 254.042 297.216 258.976 299.48C263.298 301.471 268.206 302.804 273.566 303.444C275.7 303.694 277.857 303.822 279.977 303.822C282.808 303.822 285.697 303.594 288.561 303.145C291.376 302.697 293.585 302.109 295.512 301.297C297.406 300.498 299.165 299.367 300.738 297.934C302.101 296.679 303.354 295.165 304.679 293.165C305.376 292.126 305.982 291.098 306.432 290.317C307.086 289.207 307.704 288.102 308.275 287.029C310.87 282.198 313.16 276.896 315.082 271.271C316.967 265.732 318.407 260.066 319.358 254.427C319.803 251.781 320.14 249.008 320.359 246.184C320.581 243.314 320.666 240.535 320.608 237.926C320.545 235.039 320.3 232.254 319.879 229.65C319.433 226.916 318.738 224.232 317.813 221.675C316.889 219.116 315.661 216.67 314.164 214.406C313.223 212.967 312.287 211.682 311.3 210.477C310.448 209.617 309.561 208.818 308.663 208.099C307.836 207.449 307.019 206.884 306.236 206.418C305.454 205.951 304.654 205.536 303.859 205.186C303.858 205.18 303.855 205.177 303.852 205.177Z" fill="#FDFEFD"/>
<path d="M305.237 210.909C304.044 212.118 302.921 213.394 301.883 214.731C300.746 216.215 299.707 217.772 298.782 219.396C297.89 220.967 297.094 222.596 296.392 224.266C296.399 224.243 296.406 224.224 296.414 224.205C293.615 230.875 292.285 238.044 291.326 245.179C291.33 245.167 291.33 245.153 291.334 245.137C291.005 247.592 290.718 250.051 290.409 252.51C290.103 254.999 289.779 257.488 289.397 259.974C288.709 264.461 287.853 268.94 286.549 273.296C285.919 275.412 285.186 277.5 284.309 279.528C283.444 281.531 282.455 283.483 281.28 285.323C280.135 287.117 278.839 288.82 277.363 290.354C276.612 291.135 275.822 291.88 274.987 292.571C274.208 293.213 273.408 293.832 272.543 294.346C270.87 295.347 269.027 296.045 267.127 296.461C265.132 296.891 263.085 297.054 261.05 296.975C258.934 296.896 256.823 296.594 254.769 296.083C253.733 295.825 252.71 295.519 251.703 295.167C253.835 296.804 256.265 298.25 258.969 299.49C263.283 301.48 268.193 302.813 273.568 303.463C275.725 303.713 277.882 303.841 279.982 303.841C282.774 303.841 285.663 303.611 288.564 303.165C291.382 302.712 293.595 302.123 295.525 301.307C297.421 300.51 299.181 299.377 300.756 297.945C302.127 296.68 303.381 295.165 304.699 293.167C305.424 292.094 306.044 291.029 306.452 290.319C307.078 289.257 307.702 288.15 308.295 287.032C310.894 282.197 313.183 276.895 315.101 271.274C316.986 265.756 318.425 260.086 319.381 254.421C319.823 251.792 320.159 249.02 320.382 246.179C320.605 243.286 320.688 240.51 320.632 237.922C320.564 235.007 320.319 232.223 319.903 229.647C319.453 226.901 318.758 224.216 317.833 221.662C316.912 219.105 315.685 216.661 314.185 214.394C313.263 212.978 312.326 211.69 311.322 210.455C310.442 209.575 309.554 208.775 308.682 208.079C308.629 208.037 308.576 207.996 308.522 207.954C307.374 208.884 306.276 209.87 305.237 210.909Z" fill="#F1F2F2"/>
<path d="M268.242 219.327C267.54 220.067 266.777 220.74 265.979 221.366C265.178 221.996 264.344 222.582 263.513 223.167C262.677 223.753 261.843 224.342 261.035 224.962C260.185 225.618 259.377 226.325 258.641 227.104C257.296 228.517 256.284 230.212 255.54 232.01C254.746 233.932 254.312 235.995 254.146 238.061C254.134 238.194 254.233 238.314 254.365 238.326C254.494 238.337 254.615 238.239 254.625 238.107C254.704 237.113 254.848 236.128 255.063 235.153C255.06 235.171 255.052 235.195 255.049 235.213C255.226 234.436 255.445 233.673 255.709 232.92C255.988 232.132 256.329 231.366 256.717 230.63C257.016 230.078 257.341 229.541 257.696 229.026C258.073 228.48 258.497 227.963 258.945 227.474C258.944 227.475 258.943 227.476 258.942 227.477C258.944 227.475 258.946 227.473 258.948 227.471C258.962 227.456 258.974 227.443 258.988 227.428C258.982 227.434 258.977 227.44 258.972 227.444C259.666 226.717 260.422 226.058 261.212 225.437C262.013 224.807 262.851 224.221 263.686 223.636C264.518 223.05 265.352 222.465 266.156 221.841C267.006 221.187 267.81 220.482 268.543 219.703C268.592 219.655 268.626 219.609 268.634 219.537C268.637 219.473 268.618 219.409 268.581 219.364C268.539 219.311 268.478 219.281 268.415 219.273C268.409 219.272 268.403 219.272 268.397 219.272C268.345 219.273 268.276 219.289 268.242 219.327ZM256.716 230.633C256.713 230.638 256.71 230.645 256.707 230.65C256.71 230.645 256.712 230.638 256.716 230.633ZM258.948 227.471L258.946 227.474C258.956 227.465 258.965 227.456 258.973 227.445C258.965 227.454 258.957 227.463 258.948 227.471Z" fill="#DEDEDE"/>
<path d="M271.286 279.339L271.281 279.338L271.286 279.339Z" fill="#DEDEDE"/>
<path d="M284.23 183.007C284.066 183.041 283.924 183.224 283.975 183.396C284.18 184.072 284.348 184.756 284.404 185.459C284.422 185.799 284.41 186.136 284.352 186.472C284.308 186.659 284.252 186.837 284.177 187.012C284.104 187.148 284.022 187.277 283.927 187.398C283.828 187.506 283.722 187.603 283.605 187.692C283.448 187.795 283.284 187.879 283.108 187.949C282.944 188 282.781 188.034 282.611 188.052C282.616 188.051 282.62 188.051 282.624 188.05C282.435 188.058 282.25 188.047 282.065 188.015C281.855 187.966 281.657 187.897 281.46 187.809C281.21 187.681 280.979 187.525 280.758 187.345C280.78 187.363 280.801 187.381 280.822 187.402C280.556 187.174 280.323 186.918 280.115 186.637C279.946 186.382 279.803 186.115 279.696 185.828C279.665 185.752 279.579 185.691 279.506 185.667C279.424 185.64 279.33 185.648 279.251 185.685C279.176 185.726 279.117 185.795 279.09 185.875C279.059 185.968 279.076 186.044 279.108 186.131C279.453 187.041 280.145 187.828 280.992 188.305C281.399 188.533 281.851 188.674 282.319 188.707C282.55 188.725 282.791 188.699 283.018 188.655C283.291 188.6 283.554 188.484 283.794 188.347C284.183 188.126 284.5 187.791 284.711 187.4C284.935 186.985 285.031 186.517 285.062 186.052C285.092 185.587 285.039 185.11 284.962 184.655C284.882 184.182 284.757 183.719 284.618 183.264C284.591 183.176 284.553 183.106 284.476 183.054C284.432 183.026 284.382 183.008 284.331 183.003C284.299 182.998 284.265 182.999 284.23 183.007ZM281.488 187.821C281.496 187.825 281.503 187.829 281.511 187.833C281.504 187.828 281.497 187.825 281.488 187.821Z" fill="#25225F"/>
<path d="M293.872 173.033C295.105 172.874 295.894 171.092 295.631 169.056C295.368 167.02 294.154 165.496 292.921 165.656C291.687 165.815 290.899 167.596 291.161 169.632C291.425 171.668 292.639 173.192 293.872 173.033Z" fill="#25225F"/>
<path d="M263.118 176.537C261.882 176.675 260.694 175.13 260.467 173.09C260.24 171.05 261.058 169.282 262.294 169.145C263.53 169.007 264.717 170.551 264.946 172.591C265.173 174.631 264.354 176.399 263.118 176.537Z" fill="#25225F"/>
<path d="M264.084 158.553C262.923 158.425 261.198 158.738 259.468 159.391C257.247 160.228 255.447 161.467 254.992 162.474C254.872 162.739 254.85 162.978 254.928 163.184C255.067 163.555 255.517 163.793 256.229 163.871C257.393 163.999 259.118 163.687 260.844 163.036C263.726 161.949 265.763 160.247 265.384 159.24C265.247 158.869 264.797 158.632 264.084 158.553Z" fill="#1DCAD3"/>
<path d="M293.357 155.508L293.168 155.487C290.158 155.155 287.699 155.717 287.571 156.766C287.508 157.285 288.028 157.844 289.034 158.338C290.04 158.83 291.407 159.2 292.882 159.381L293.072 159.402C296.08 159.733 298.537 159.171 298.666 158.121C298.728 157.603 298.208 157.046 297.202 156.551C296.2 156.059 294.834 155.689 293.357 155.508Z" fill="#1DCAD3"/>
<path d="M277.332 163.282H277.331C277.328 163.282 277.278 163.29 277.278 163.293C277.238 163.293 277.194 163.32 277.165 163.36C277.139 163.401 277.129 163.445 277.137 163.489C277.555 165.661 277.782 167.583 277.83 169.365C277.844 169.873 277.837 170.405 277.813 170.904C277.795 171.362 277.765 171.752 277.718 172.096C277.141 171.767 276.552 171.571 275.975 171.507C275.718 171.479 275.468 171.478 275.231 171.505C274.525 171.578 273.886 171.987 273.523 172.601C273.165 173.207 273.026 173.955 273.109 174.823C273.189 175.621 273.487 176.419 273.997 177.195C274.235 177.554 274.526 177.851 274.779 178.095C275.068 178.365 275.414 178.602 275.836 178.82C276.198 179.011 276.623 179.15 277.134 179.245C277.237 179.264 277.338 179.278 277.44 179.289C277.803 179.329 278.198 179.326 278.645 179.279C278.786 179.265 278.916 179.19 279.012 179.065C279.115 178.93 279.16 178.757 279.133 178.602C279.108 178.45 279.026 178.316 278.903 178.224C278.822 178.163 278.727 178.126 278.622 178.115C278.574 178.11 278.52 178.11 278.458 178.117C278.317 178.13 278.176 178.14 278.033 178.148C277.847 178.15 277.66 178.14 277.474 178.119C277.301 178.1 277.125 178.07 276.954 178.03C276.632 177.94 276.325 177.817 276.044 177.666C275.77 177.5 275.51 177.305 275.273 177.085C275.033 176.844 274.815 176.568 274.622 176.265C274.437 175.949 274.28 175.591 274.156 175.2C274.067 174.875 274.015 174.557 274.002 174.256C273.997 173.968 274.022 173.699 274.078 173.456C274.129 173.272 274.193 173.107 274.275 172.951C274.344 172.838 274.423 172.731 274.514 172.629C274.598 172.551 274.688 172.479 274.787 172.415C274.897 172.352 275.02 172.297 275.15 172.254C275.333 172.207 275.512 172.183 275.699 172.178C275.82 172.179 275.938 172.184 276.056 172.197C276.22 172.215 276.381 172.246 276.545 172.282L276.615 172.298C277.024 172.407 277.432 172.579 277.828 172.746C277.825 172.747 277.825 172.748 277.896 172.765C277.97 172.773 278.047 172.75 278.107 172.701C278.162 172.652 278.194 172.592 278.198 172.528L278.223 172.042C278.236 171.824 278.247 171.629 278.256 171.438C278.27 171.072 278.275 170.705 278.274 170.337C278.272 169.63 278.236 168.888 278.167 168.069C278.052 166.712 277.842 165.28 277.486 163.427C277.473 163.352 277.408 163.291 277.332 163.282Z" fill="#D7CBB4"/>
</svg>
