<svg width="350" height="407" viewBox="0 0 350 407" fill="none" xmlns="http://www.w3.org/2000/svg">
<rect width="350" height="324" rx="10" fill="#052742"/>
<path d="M128.163 300.183C127.899 300.072 127.606 300.116 127.417 300.294C127.188 300.517 126.954 300.733 126.713 300.947C126.534 300.992 126.38 301.105 126.28 301.266C126.259 301.297 126.243 301.335 126.227 301.372C125.282 302.178 124.263 302.937 123.114 303.688C123.105 303.694 123.096 303.701 123.086 303.706L123.092 303.712L123.083 303.708L123.084 303.707C120.382 305.424 117.34 306.898 113.442 308.391C111.987 308.95 110.433 309.502 108.405 310.18C106.766 310.726 105.183 311.254 103.596 311.757C103.038 311.923 102.516 312.055 101.995 312.187L101.713 312.257C100.876 312.468 100.045 312.681 99.2161 312.928C97.6581 313.393 95.8801 313.982 94.4981 315.1C93.8831 315.598 93.4321 316.207 93.1951 316.863C93.0791 317.176 93.0181 317.53 93.0171 317.888C93.0171 318.288 93.0861 318.682 93.2491 319.202C93.3641 319.555 93.5461 319.919 93.8221 320.348C94.0741 320.746 94.3391 321.089 94.6311 321.397C95.1661 321.97 95.8261 322.468 96.5911 322.878C96.8731 323.029 97.1621 323.165 97.4551 323.288C98.4451 323.703 99.5791 324.004 100.921 324.208C102.331 324.425 103.859 324.506 105.876 324.472C107.763 324.442 109.672 324.297 111.52 324.158C112.909 324.054 114.346 323.944 115.764 323.885C116.422 323.863 117.2 323.846 117.985 323.889C118.259 323.903 118.532 323.931 118.804 323.96L119.159 323.995C119.723 324.048 120.287 324.081 120.847 324.104C122.982 324.182 124.85 324.01 126.557 323.577C127.412 323.361 128.24 323.073 129.022 322.721C129.734 322.401 130.458 321.985 131.232 321.451C132.541 320.549 133.759 319.346 134.953 317.777C135.476 317.089 136 316.299 136.557 315.361C137.062 314.506 137.517 313.607 137.956 312.736L138.183 312.29L138.405 311.868C138.738 311.239 139.082 310.589 139.329 309.905C139.461 309.552 139.283 309.146 138.933 308.999C138.737 308.929 138.559 308.934 138.4 308.998C138.325 308.526 138.169 308.051 137.951 307.594C137.706 307.078 137.332 306.553 136.837 306.034C136.436 305.608 135.951 305.206 135.266 304.733C134.08 303.918 132.729 303.317 131.556 302.819C130.984 302.578 130.406 302.348 129.83 302.118C129.287 301.902 128.758 301.694 128.232 301.472L128.337 301.374L128.343 301.381C128.64 301.099 128.674 300.666 128.422 300.373C128.355 300.29 128.264 300.224 128.163 300.183Z" fill="#B0A6E6"/>
<path d="M132.15 314.946H132.148H132.138C132.126 314.941 132.116 314.939 132.102 314.937C131.723 314.893 131.348 314.886 130.968 314.925C130.973 314.925 130.978 314.925 130.982 314.925C130.991 314.925 130.999 314.923 131.008 314.922C131 314.924 130.992 314.925 130.982 314.925C130.551 314.981 130.135 315.096 129.725 315.256C129.2 315.483 128.714 315.776 128.259 316.12C127.567 316.658 126.962 317.302 126.421 317.994C126.435 317.981 126.447 317.961 126.461 317.947C125.684 318.964 125.057 320.08 124.552 321.255C124.174 322.164 123.869 323.105 123.662 324.066C124.684 323.982 125.645 323.826 126.562 323.596C127.426 323.373 128.254 323.086 129.03 322.738C129.765 322.401 130.49 321.984 131.242 321.463C132.545 320.567 133.767 319.366 134.966 317.789C135.167 317.529 135.37 317.247 135.578 316.941C135.269 316.623 134.939 316.323 134.585 316.048L134.588 316.049C134.167 315.732 133.718 315.464 133.236 315.254C132.886 315.117 132.524 315.011 132.15 314.946Z" fill="#A48BE6"/>
<path d="M99.2111 312.912C97.6481 313.38 95.8661 313.973 94.4861 315.087C93.8651 315.589 93.4141 316.199 93.1781 316.858C93.0601 317.167 92.9971 317.527 93.0001 317.891C92.9991 318.282 93.0691 318.677 93.2311 319.212C93.3511 319.581 93.5361 319.945 93.8081 320.362C94.0651 320.765 94.3271 321.11 94.6191 321.412C95.1491 321.981 95.8081 322.481 96.5811 322.899C96.8671 323.051 97.1531 323.187 97.4481 323.311C98.4331 323.725 99.5701 324.026 100.921 324.226C101.516 324.32 102.136 324.389 102.811 324.433C103.006 323.811 103.15 323.175 103.246 322.527C103.403 321.402 103.418 320.265 103.278 319.135C103.281 319.155 103.285 319.178 103.288 319.198C103.159 318.241 102.926 317.306 102.559 316.414C102.567 316.433 102.575 316.453 102.586 316.474C102.443 316.138 102.29 315.812 102.109 315.501C101.931 315.191 101.738 314.895 101.522 314.609C101.535 314.625 101.547 314.643 101.561 314.661C101.192 314.182 100.774 313.752 100.302 313.376C100.316 313.39 100.332 313.4 100.346 313.415C100.12 313.24 99.8831 313.073 99.6361 312.93C99.5821 312.897 99.5281 312.866 99.4721 312.836C99.3871 312.859 99.2991 312.885 99.2111 312.912Z" fill="#A48BE6"/>
<path d="M168.525 225.824C166.984 226.179 165.412 226.772 163.857 227.588C161.624 228.751 159.494 230.463 157.342 232.809C155.608 234.705 153.958 236.956 152.151 239.891C150.577 242.448 149.186 245.084 147.898 247.566L147.478 248.378C146.988 249.327 146.497 250.274 146.001 251.223L145.575 252.031C144.876 253.375 144.173 254.716 143.489 256.064C140.181 262.569 137.031 269.349 133.854 276.801C132.101 280.925 130.387 285.151 128.611 289.722C127.779 291.86 126.967 294.002 126.166 296.147L125.679 297.473C125.449 298.1 125.219 298.73 124.981 299.358C124.569 300.45 124.143 301.579 123.776 302.705C123.731 302.848 123.745 303.011 123.822 303.161L123.852 303.275C124.237 304.408 124.898 305.496 125.948 306.731C126.911 307.857 128.116 308.937 129.536 309.941C130.842 310.863 132.233 311.607 133.668 312.154C134.337 312.407 135.043 312.604 135.825 312.751C136.23 312.828 136.647 312.869 137.093 312.878C137.525 312.835 137.957 312.785 138.389 312.724C141.604 308.762 145.183 304.681 149.978 299.501C150.851 298.553 151.727 297.613 152.603 296.669C155.183 293.893 157.853 291.018 160.406 288.129C164.15 283.887 167.213 280.038 169.774 276.363C172.799 272.019 175.383 267.475 177.452 262.864C177.826 262.029 178.185 261.186 178.533 260.34C180.055 262.985 181.856 265.704 183.873 268.427C186.392 271.83 189.15 275.097 192.073 278.141C195.261 281.458 198.578 284.43 201.928 286.976C205.531 289.711 209.214 291.932 212.874 293.582C216.746 295.339 220.613 296.385 224.372 296.698C225.101 296.762 225.845 296.793 226.585 296.793C227.786 296.793 229.002 296.71 230.196 296.547C232.096 296.294 234.038 295.787 235.964 295.039C237.585 294.412 239.171 293.6 240.682 292.622C241.336 292.196 241.978 291.651 242.654 290.956C243.334 290.25 243.965 289.461 244.528 288.6C245.434 287.221 248.21 282.39 245.963 278.043C246.031 277.839 246.001 277.605 245.884 277.423C242.417 272.166 238.375 267.078 233.536 261.858C228.959 256.925 223.825 252.132 218.281 247.61C212.891 243.217 207.214 239.199 201.409 235.671C198.595 233.956 195.683 232.335 192.752 230.851C189.269 229.095 186.353 227.856 183.577 226.953C180.103 225.824 176.722 225.249 173.531 225.245C171.89 225.246 170.209 225.443 168.525 225.824Z" fill="#376279"/>
</svg>
