<svg width="350" height="407" viewBox="0 0 350 407" fill="none" xmlns="http://www.w3.org/2000/svg">
<path d="M212.546 220.879C212.35 221.071 212.168 221.351 212.036 221.664C211.884 222.03 211.813 222.382 211.805 222.771C211.787 223.379 211.971 224.037 212.387 224.837C212.855 225.743 213.528 226.533 214.121 227.183C214.517 227.617 214.967 228.063 215.53 228.58C214.367 227.942 213.301 227.447 212.285 227.05C211.447 226.721 210.745 226.513 210.075 226.404C209.728 226.351 209.425 226.321 209.146 226.321C208.765 226.321 208.41 226.377 208.096 226.48C207.466 226.699 206.978 227.141 206.725 227.726C206.461 228.346 206.439 228.998 206.665 229.622C207.043 230.668 207.885 231.461 208.579 232.039C209.429 232.742 210.408 233.391 211.749 234.154C212.002 234.298 212.251 234.437 212.508 234.577C212.232 234.528 211.953 234.509 211.673 234.509C211.291 234.509 210.917 234.543 210.566 234.607C210.192 234.676 209.837 234.823 209.561 235.015C209.444 235.098 209.293 235.211 209.176 235.359C209.028 235.544 208.938 235.71 208.851 235.96C208.73 236.299 208.79 236.696 208.866 236.968C208.983 237.406 209.252 237.776 209.52 238.116C209.833 238.516 210.234 238.837 210.59 239.102C211.088 239.479 211.647 239.831 212.346 240.204C213.43 240.786 214.635 241.326 216.029 241.855C218.51 242.792 221.211 243.43 224.059 243.751C225.083 243.868 226.133 243.925 227.187 243.925C227.315 244.016 227.466 244.072 227.595 244.072C227.893 244.016 228.101 243.963 228.305 243.899C228.497 243.891 228.675 243.883 228.848 243.872C229.181 243.85 229.456 243.646 229.547 243.351C229.789 243.212 230.019 243.053 230.246 242.879C230.93 242.354 231.582 241.659 232.232 240.753C233.192 239.424 233.92 237.946 234.643 236.42C234.729 236.489 234.866 236.522 235.006 236.522C235.292 236.488 235.474 236.386 235.591 236.227C235.679 236.11 235.73 235.969 235.738 235.823C235.728 235.838 235.716 235.853 235.7 235.867C235.683 235.897 235.657 235.924 235.628 235.944C235.564 235.986 235.473 235.997 235.398 235.97C235.349 235.955 235.292 235.922 235.265 235.876C234.974 235.343 234.698 234.799 234.483 234.233C234.381 233.956 234.28 233.685 234.201 233.401C234.152 233.231 234.102 233.058 234.061 232.884C234.049 232.842 234.035 232.797 234.023 232.752C233.724 231.509 233.702 230.214 233.683 228.96C233.676 228.413 233.669 227.866 233.637 227.321C233.573 226.252 233.403 225.399 233.094 224.632C232.754 223.808 232.236 223.144 231.632 222.762C231.319 222.562 230.99 222.441 230.635 222.388C230.544 222.377 230.461 222.37 230.374 222.37C230.136 222.37 229.884 222.415 229.559 222.517C229.377 222.578 229.204 222.68 229.042 222.786C228.883 222.888 228.739 223.001 228.6 223.129C228.279 223.424 227.988 223.798 227.705 224.274C227.429 224.742 227.218 225.218 227.067 225.724C226.927 226.196 226.832 226.705 226.78 227.291C226.746 227.661 226.735 228.042 226.746 228.42C226.16 228.08 225.567 227.74 224.981 227.384L224.887 227.324C224.505 227.094 224.124 226.859 223.754 226.599L223.659 226.542V226.55C223.285 226.241 222.941 225.95 222.598 225.659L222.363 225.463C221.729 224.934 221.102 224.405 220.46 223.884C219.621 223.208 218.926 222.679 218.273 222.219C217.506 221.671 216.849 221.267 216.195 220.942C215.372 220.523 214.639 220.308 214.019 220.308C213.434 220.309 212.939 220.501 212.546 220.879Z" fill="#EC95B1"/>
<path d="M215.934 228.781C215.847 228.875 215.843 229.037 215.945 229.124C216.339 229.449 216.735 229.762 217.151 230.061C217.577 230.367 218.015 230.654 218.465 230.926C218.945 231.212 219.436 231.477 219.931 231.73C220.433 231.986 220.946 232.22 221.471 232.432C221.55 232.466 221.626 232.485 221.713 232.458C221.792 232.432 221.865 232.376 221.906 232.299C221.986 232.152 221.933 231.94 221.774 231.865C220.954 231.491 220.131 231.132 219.33 230.725C218.934 230.521 218.545 230.301 218.163 230.079C217.743 229.83 217.337 229.561 216.939 229.28C216.944 229.283 216.948 229.286 216.951 229.289C216.945 229.284 216.938 229.279 216.931 229.275C216.92 229.267 216.91 229.259 216.899 229.252C216.903 229.255 216.908 229.257 216.911 229.26C216.695 229.103 216.486 228.939 216.28 228.769C216.23 228.728 216.168 228.705 216.107 228.705C216.042 228.705 215.981 228.73 215.934 228.781ZM216.929 229.276L216.938 229.282C216.929 229.275 216.919 229.268 216.909 229.261C216.915 229.265 216.922 229.271 216.929 229.276Z" fill="#D688A1"/>
<path d="M212.896 234.791C212.832 234.908 212.877 235.055 212.995 235.12C213.406 235.342 213.814 235.574 214.23 235.788C214.69 236.026 215.163 236.253 215.635 236.464C216.507 236.861 217.406 237.212 218.324 237.484C218.516 237.541 218.724 237.397 218.766 237.212C218.815 237.016 218.691 236.819 218.494 236.77C217.705 236.566 216.927 236.336 216.16 236.049C216.186 236.057 216.209 236.067 216.232 236.075C215.201 235.679 214.197 235.217 213.222 234.692C213.187 234.674 213.15 234.666 213.113 234.666C213.025 234.667 212.938 234.712 212.896 234.791Z" fill="#D688A1"/>
<path d="M304.497 205.466C304.495 205.466 304.493 205.466 304.492 205.468L304.488 205.472C304.308 205.551 304.168 205.692 304.096 205.865C303.376 206.905 302.65 208.095 301.816 209.607C301.136 210.832 300.504 212.124 299.881 213.559C298.859 215.898 297.955 218.557 297.119 221.688C296.309 224.719 295.711 227.63 295.234 230.078C294.802 232.263 294.482 234.562 294.199 236.59L294.172 236.801L294.078 237.451L293.999 238.028C293.809 239.35 293.621 240.673 293.413 241.998C293.023 244.453 292.629 246.47 292.171 248.342C291.63 250.539 291.004 252.436 290.256 254.143C289.89 254.945 289.489 255.704 289.068 256.397C287.413 255.399 285.5 254.47 283.234 253.552C281.069 252.677 278.769 251.873 276.196 251.093C272.82 250.062 269.371 249.219 266.036 248.402L265.887 248.366C264.339 247.988 262.79 247.607 261.246 247.21C259.933 246.87 258.532 246.5 257.092 246.074C255.877 245.71 254.615 245.271 253.236 244.729C251.021 243.856 248.733 242.758 246.242 241.376L246.146 241.333C242.833 239.456 239.651 237.351 236.576 235.316L235.277 234.456C235.174 234.387 235.055 234.342 234.94 234.326C234.845 234.264 234.713 234.227 234.58 234.227C234.398 234.227 234.212 234.298 234.056 234.426C232.291 235.936 230.955 237.265 229.852 238.608C228.414 240.368 227.472 242.053 226.972 243.764C226.908 243.977 226.942 244.213 227.064 244.394C227.075 244.427 227.085 244.462 227.106 244.497C228.442 246.954 230.05 249.39 232.025 251.946C233.659 254.067 235.51 256.19 237.524 258.258C241.114 261.947 245.211 265.414 249.7 268.563C254.275 271.773 259.083 274.506 263.994 276.685C269.096 278.944 274.141 280.484 278.991 281.267C281.369 281.648 283.775 281.841 286.143 281.841C288.142 281.841 290.152 281.704 292.115 281.433C296.563 280.816 300.666 279.506 304.312 277.538C306.223 276.508 307.998 275.301 309.589 273.953C311.232 272.551 312.721 270.956 314.014 269.214C316.61 265.717 318.474 261.441 319.878 255.756C321.141 250.637 321.687 245.145 321.503 239.432C321.416 236.75 321.14 234.038 320.683 231.371C320.287 229.102 319.716 226.761 318.987 224.413C317.816 220.639 316.318 217.248 314.532 214.334C314.162 213.805 313.787 213.276 313.41 212.751C313.206 212.474 313.002 212.203 312.794 211.931C311.591 210.611 310.545 209.566 309.5 208.639C308.754 207.986 308.023 207.419 307.331 206.95C307.043 206.757 306.748 206.572 306.453 206.391L306.268 206.277L306.079 206.168C305.557 205.926 305.036 205.691 304.507 205.469C304.504 205.467 304.501 205.466 304.497 205.466Z" fill="#FDFEFD"/>
<path d="M315.789 218.725C317.088 222.997 317.836 227.439 318.074 231.9C318.195 234.177 318.195 236.463 318.052 238.74C317.916 240.98 317.662 243.212 317.262 245.418C316.869 247.605 316.352 249.769 315.676 251.885C315.034 253.918 314.263 255.911 313.334 257.83C312.435 259.681 311.404 261.464 310.21 263.141C308.892 264.992 307.392 266.722 305.696 268.244C304.132 269.645 302.422 270.891 300.575 271.9C298.804 272.871 296.93 273.649 294.992 274.212C293.062 274.767 291.075 275.133 289.073 275.311C287.01 275.492 284.937 275.488 282.875 275.341C278.615 275.031 274.406 274.095 270.35 272.776C266.225 271.436 262.225 269.72 258.38 267.719C256.48 266.73 254.621 265.672 252.794 264.561C250.72 263.304 248.673 262 246.664 260.641C244.56 259.213 242.49 257.728 240.484 256.161C238.429 254.56 236.432 252.878 234.539 251.085C232.718 249.363 230.981 247.546 229.398 245.597C228.659 244.688 227.951 243.751 227.289 242.783C227.161 243.108 227.05 243.432 226.954 243.758C226.882 243.98 226.92 244.222 227.045 244.404C227.056 244.438 227.067 244.472 227.087 244.506C228.416 246.953 230.026 249.39 232.008 251.962C233.652 254.092 235.503 256.219 237.508 258.277C241.092 261.96 245.19 265.428 249.689 268.582C254.259 271.792 259.067 274.523 263.981 276.702C269.08 278.961 274.13 280.502 278.987 281.291C281.382 281.669 283.792 281.865 286.141 281.865C288.135 281.865 290.144 281.725 292.117 281.457C296.57 280.833 300.675 279.523 304.321 277.555C306.224 276.531 307.999 275.326 309.602 273.971C311.252 272.562 312.741 270.964 314.029 269.23C316.623 265.733 318.489 261.457 319.894 255.769C321.16 250.636 321.707 245.143 321.522 239.436C321.435 236.755 321.159 234.043 320.702 231.372C320.302 229.095 319.727 226.753 319.002 224.407C317.827 220.63 316.331 217.238 314.549 214.33C314.244 213.896 313.94 213.466 313.632 213.036C314.484 214.879 315.199 216.787 315.789 218.725Z" fill="#F1F2F2"/>
<path d="M234.862 234.072C234.767 234.181 234.783 234.348 234.892 234.441C239.209 238.105 243.943 241.323 249.071 243.74C250.352 244.344 251.655 244.899 252.973 245.413C254.3 245.927 255.648 246.377 257.003 246.796C259.874 247.684 262.798 248.387 265.721 249.074C269.52 249.972 273.334 250.842 277.065 251.997C278.29 252.383 279.501 252.799 280.701 253.255C281.854 253.693 283.013 254.123 284.165 254.573C286.432 255.458 288.672 256.439 290.728 257.745C291.384 258.173 292.016 258.633 292.612 259.136C292.812 259.306 293.122 259.279 293.292 259.079C293.458 258.886 293.443 258.565 293.235 258.403C292.193 257.572 291.083 256.839 289.922 256.182C288.737 255.506 287.498 254.921 286.248 254.377C285.005 253.83 283.736 253.335 282.47 252.843C281.855 252.601 281.243 252.363 280.627 252.129C279.89 251.849 279.15 251.592 278.406 251.347C272.711 249.455 266.784 248.397 260.997 246.829C260.024 246.57 259.06 246.292 258.102 245.996C258.131 246.005 258.161 246.012 258.191 246.021C255.026 245.036 251.932 243.823 248.93 242.426C245.92 241.024 242.981 239.472 240.182 237.689C240.194 237.696 240.204 237.703 240.216 237.71C238.48 236.591 236.811 235.374 235.234 234.04C235.185 233.998 235.125 233.978 235.064 233.978C234.987 233.979 234.913 234.011 234.862 234.072ZM240.26 237.738C240.245 237.727 240.23 237.718 240.215 237.71L240.26 237.738Z" fill="#DEDEDE"/>
<path d="M295.445 227.538C295.154 229.072 294.912 230.613 294.686 232.157C294.444 233.808 294.21 235.462 293.987 237.113C293.551 240.372 293.054 243.625 292.234 246.812C292.241 246.785 292.246 246.758 292.253 246.73C291.92 248.003 291.532 249.26 291.068 250.492C290.833 251.122 290.573 251.746 290.297 252.361C290.024 252.965 289.733 253.559 289.411 254.135C289.279 254.36 289.141 254.582 288.989 254.797C288.83 255.027 288.66 255.254 288.495 255.481C288.325 255.711 288.362 256.04 288.593 256.214C288.706 256.301 288.85 256.339 288.986 256.316C289.134 256.298 289.228 256.218 289.326 256.116C289.409 256.037 289.485 255.95 289.556 255.863C289.665 255.735 289.756 255.587 289.847 255.448C290.021 255.176 290.172 254.881 290.326 254.594C290.625 254.035 290.915 253.472 291.176 252.894C291.675 251.802 292.082 250.673 292.438 249.533C293.159 247.195 293.631 244.788 294.005 242.371C294.39 239.905 294.661 237.423 294.923 234.941C295.183 232.482 295.466 230.023 295.924 227.595C295.947 227.466 295.837 227.342 295.712 227.326C295.701 227.325 295.691 227.324 295.679 227.324C295.56 227.324 295.466 227.417 295.445 227.538Z" fill="#DEDEDE"/>
<path d="M321.425 244.17C321.414 244.42 321.404 244.672 321.387 244.921C321.363 245.502 321.324 246.083 321.268 246.664C321.242 246.917 321.215 247.174 321.185 247.427C321.113 248.205 321.019 248.984 320.902 249.757C320.66 251.355 320.328 252.937 319.878 254.482C319.546 255.91 319.115 257.311 318.598 258.686C318.221 259.838 317.793 260.971 317.306 262.081C316.725 263.41 316.033 264.692 315.263 265.919C315.293 265.874 315.32 265.828 315.35 265.787C313.933 268.02 312.234 270.059 310.288 271.85C308.177 273.758 305.813 275.347 303.293 276.659C303.342 276.632 303.392 276.61 303.444 276.583C301.605 277.532 299.701 278.332 297.753 279.016C295.69 279.737 293.575 280.33 291.441 280.807C291.494 280.791 291.547 280.78 291.6 280.769C288.835 281.369 286.006 281.584 283.185 281.486C283.23 281.49 283.28 281.49 283.329 281.494C281.296 281.415 279.272 281.18 277.274 280.817C275.249 280.448 273.252 279.941 271.284 279.344H271.287C269.769 278.876 268.277 278.358 266.796 277.784C265.288 277.194 263.808 276.544 262.346 275.85C259.498 274.497 256.738 272.964 254.071 271.287C254.101 271.305 254.131 271.325 254.162 271.347C251.064 269.391 248.107 267.231 245.3 264.873C242.524 262.539 239.914 260.012 237.463 257.345C237.482 257.363 237.501 257.387 237.524 257.409C235.672 255.392 233.905 253.296 232.244 251.12C230.57 248.934 228.995 246.675 227.515 244.355C227.44 244.238 227.273 244.216 227.16 244.291C227.043 244.374 227.024 244.529 227.095 244.646C229.932 249.096 233.052 253.372 236.554 257.323C240.028 261.247 243.854 264.854 248.017 268.046C252.273 271.309 256.897 274.085 261.709 276.451C264.213 277.682 266.785 278.781 269.414 279.722C272.024 280.658 274.698 281.406 277.425 281.92C280.11 282.426 282.838 282.691 285.572 282.661C286.928 282.645 288.284 282.547 289.628 282.37C290.916 282.2 292.189 281.936 293.45 281.637C297.957 280.579 302.334 278.906 306.27 276.451C308.189 275.25 309.968 273.837 311.604 272.27C313.277 270.66 314.75 268.851 316.019 266.906C316.695 265.87 317.311 264.802 317.87 263.703C318.464 262.528 318.962 261.305 319.4 260.062C320.303 257.474 320.911 254.788 321.3 252.077C321.516 250.577 321.648 249.066 321.723 247.556C321.761 246.842 321.779 246.128 321.783 245.414C321.783 245.006 321.779 244.598 321.753 244.194C321.723 243.748 321.65 243.314 321.553 242.884C321.545 242.854 321.534 242.827 321.519 242.805C321.494 243.261 321.465 243.714 321.425 244.17Z" fill="#DEDEDE"/>
</svg>
